<?xml version="1.0" encoding="utf-8"?>
<!-- Generator: Adobe Illustrator 22.0.0, SVG Export Plug-In . SVG Version: 6.00 Build 0)  -->
<svg version="1.1" id="Layer_1" xmlns="http://www.w3.org/2000/svg" xmlns:xlink="http://www.w3.org/1999/xlink" x="0px" y="0px"
	 viewBox="0 0 90 43.7" style="enable-background:new 0 0 90 43.7;" xml:space="preserve">
<g>
	<path d="M56.5,21.2c-1,0-1.7,0.8-1.7,1.7c0,1,0.8,1.7,1.7,1.7c1,0,1.7-0.8,1.7-1.7C58.1,21.9,57.4,21.2,56.5,21.2z"/>
	<path d="M45,1.8c-11,0-20,9-20,20c0,11,9,20,20,20s20-9,20-20C65,10.8,56,1.8,45,1.8z M37.9,22.8v2.6l-1.8,1.3v-1v-2.8
		c0-0.9-0.7-1.6-1.6-1.6s-1.6,0.7-1.6,1.6c0,0.9,0.7,1.6,1.6,1.6h0.1c0.5,0,0.9,0.4,0.9,0.9s-0.4,0.9-0.9,0.9h-0.1
		c-2,0-3.5-1.5-3.5-3.5s1.5-3.5,3.5-3.5S38,20.9,37.9,22.8L37.9,22.8z M43.7,26.1c-0.4,0.4-1,0.3-1.3-0.1l-2-2.8v2.1l-1.9,1.3
		c0-0.1,0-0.2,0-0.2V18c0-0.6,0.5-1,1-1c0.6,0,1,0.5,1,1v3.9l1.7-1.7c0.4-0.4,0.9-0.3,1.2,0.1c0.4,0.4,0.3,0.9-0.1,1.2l-1,1l1.5,2.3
		C44.2,25.2,44.1,25.8,43.7,26.1z M46.7,25.3l-1.9,1.4v-6c0-0.6,0.5-1,1-1c0.6,0,1,0.5,1,1L46.7,25.3z M45.8,19.2c-0.5,0-1-0.5-1-1
		s0.5-1,1-1c0.6,0,1,0.4,1,1C46.8,18.7,46.3,19.2,45.8,19.2z M52.6,25.9c-0.4,0.4-1,0.3-1.3-0.1l-2-2.8v2.2l-1.9,1.4V18
		c0-0.6,0.4-1,1-1c0.6,0,1,0.5,1,1v3.9l1.7-1.7c0.4-0.4,0.9-0.3,1.2,0.1c0.4,0.4,0.3,0.9-0.1,1.2l-1,1l1.8,2.2
		C53.3,25.1,53.2,25.7,52.6,25.9z M56.4,26.3c-1.9,0-3.5-1.5-3.5-3.5s1.5-3.5,3.5-3.5c1.9,0.1,3.5,1.7,3.5,3.5
		C59.9,24.7,58.4,26.3,56.4,26.3z"/>
</g>
</svg>
