<?xml version="1.0" encoding="utf-8"?>
<!-- Generator: Adobe Illustrator 22.0.0, SVG Export Plug-In . SVG Version: 6.00 Build 0)  -->
<svg version="1.1"
	 id="svg7002" inkscape:version="0.91 r13725" sodipodi:docname="Crocs Come As You Are.svg" xmlns:cc="http://creativecommons.org/ns#" xmlns:dc="http://purl.org/dc/elements/1.1/" xmlns:inkscape="http://www.inkscape.org/namespaces/inkscape" xmlns:rdf="http://www.w3.org/1999/02/22-rdf-syntax-ns#" xmlns:sodipodi="http://sodipodi.sourceforge.net/DTD/sodipodi-0.dtd" xmlns:svg="http://www.w3.org/2000/svg"
	 xmlns="http://www.w3.org/2000/svg" xmlns:xlink="http://www.w3.org/1999/xlink" x="0px" y="0px" viewBox="0 0 1000 189.7"
	 style="enable-background:new 0 0 1000 189.7;" xml:space="preserve">
<sodipodi:namedview  bordercolor="#666666" borderopacity="1.0" id="base" inkscape:current-layer="layer1" inkscape:cx="507.18253" inkscape:cy="101.87911" inkscape:document-units="px" inkscape:pageopacity="0.0" inkscape:pageshadow="2" inkscape:window-height="705" inkscape:window-maximized="1" inkscape:window-width="1366" inkscape:window-x="-8" inkscape:window-y="-8" inkscape:zoom="0.49497475" pagecolor="#ffffff" showgrid="false" units="px">
	</sodipodi:namedview>
<g id="layer1" transform="translate(0,-769.69219)" inkscape:groupmode="layer" inkscape:label="Layer 1">
	<g id="g6420" transform="matrix(3.5511364,0,0,3.5511364,-34.801136,751.58095)">
		<path id="path6422" inkscape:connector-curvature="0" d="M192.5,21.9c2.9,0,5.7,1.5,7.2,3.7c0.1,0.1,0.1,0.1,0.2,0.2
			c0.1,0.1,0.2,0.2,0.2,0.2l0,0c1,1.3,2.6,2.1,4.4,2.1c3.1,0,5.6-2.5,5.6-5.6c0-1.5-0.5-2.8-1.5-3.8c-3.9-4.8-8.5-7.5-16.1-7.5
			c-12.1,0-21.3,8.4-21.3,20.2c0,11.9,9.1,20.3,21.3,20.3c7.8,0,12.3-2.7,16.2-7l0,0c0.8-1,1.4-2.2,1.4-3.6c0-3.1-2.5-5.5-5.5-5.5
			c-1.7,0-3.2,0.8-4.2,1.9c-1.8,1.8-3.9,3.6-7.9,3.6c-5.5,0-8.7-4-8.7-9.7C183.9,25.9,186.9,21.9,192.5,21.9 M235.7,26.6
			c-5.3-1.2-7.8-1.5-7.8-3.6c0-1.5,1.4-2.3,4.2-2.3c2.9,0,5.6,1.4,7.5,2.9l0,0c0.8,0.8,2,1.3,3.3,1.3c2.7,0,4.9-2.2,4.9-4.9
			c0-1.4-0.6-2.7-1.6-3.5c-3.2-3.2-7.7-5.3-14.1-5.3c-8.3,0-15,3.5-15,12.3c0,8.1,5.9,11,11.2,12.4c6.3,1.6,8.8,1.6,8.8,3.8
			c0,1.6-1.3,2.4-5.3,2.4c-3.2,0-6.1-1.2-8.5-3.1l0.1,0.1l0,0c-1.9-1.8-5-1.7-6.9,0.2c-1.5,1.5-1.8,3.9-0.8,5.7
			c0,0.1,0.1,0.2,0.1,0.2c0.1,0.2,0.2,0.3,0.3,0.5c0.1,0.1,0.2,0.2,0.2,0.3c0.1,0.1,0.2,0.2,0.3,0.3c0.1,0.1,0.2,0.2,0.2,0.2
			c3.4,3,8.2,5.3,15.7,5.3c12.2,0,15.9-5.9,15.9-12.9C248.4,30.5,241.3,27.9,235.7,26.6 M63.4,21.9c2.9,0,5.7,1.5,7.2,3.7
			c0.1,0.1,0.1,0.1,0.2,0.2c0.1,0.1,0.2,0.2,0.2,0.2l0,0c1,1.3,2.6,2.1,4.4,2.1c3.1,0,5.6-2.5,5.6-5.6c0-1.5-0.5-2.8-1.5-3.8
			c-3.8-4.8-8.5-7.5-16.2-7.5c-12.1,0-21.2,8.4-21.2,20.2c0,11.9,9.1,20.3,21.3,20.3c7.8,0,12.3-2.7,16.2-7l0,0
			c0.8-1,1.4-2.2,1.4-3.6c0-3.1-2.5-5.5-5.5-5.5c-1.7,0-3.2,0.8-4.2,1.9c-1.8,1.8-3.9,3.6-7.8,3.6c-5.5,0-8.7-4-8.7-9.7
			C54.7,25.9,57.8,21.9,63.4,21.9 M143.4,41.3c-5.5,0-8.9-4-8.9-9.8c0-5.9,3.4-9.8,8.9-9.8c5.5,0,8.8,3.9,8.8,9.8
			C152.1,37.3,148.9,41.3,143.4,41.3 M143.4,11.2c-12,0-21.4,8.5-21.4,20.3c0,11.8,9.4,20.2,21.4,20.2s21.3-8.4,21.3-20.2
			C164.8,19.6,155.5,11.2,143.4,11.2 M115.9,13.7c-1.9-1-3.2-1.2-6.1-1c-5.1,0.5-9,4-9.7,4.9v0.2c0-0.1,0-0.2,0-0.2l0,0l0,0
			c-0.2-3.2-2.9-5.9-6.2-5.9c-3.5,0-6.2,2.8-6.3,6.2v27.5c0.1,3.4,2.8,6.1,6.3,6.1c3.5,0,6.2-2.8,6.3-6.2v-7.5
			c0-10.2,5.9-12.8,9.2-12.9c0.8,0,3.1,0.8,4.9,0.5c3.5-0.6,5.7-3.9,5.1-7.3C118.9,16.2,117.6,14.5,115.9,13.7"/>
		<g id="g6424">
			<path id="path6426" inkscape:connector-curvature="0" d="M251.2,13.2v4h-1.2v-4h-1.5v-1h4.1v1H251.2z M257.9,17.2v-3.5l0,0
				l-1.3,3.5h-0.8l-1.3-3.5l0,0v3.5h-1.2v-5h1.7l1.2,3.3l1.2-3.3h1.6v5H257.9z"/>
		</g>
	</g>
</g>
</svg>
