<?xml version="1.0" encoding="utf-8"?>
<!-- Generator: Adobe Illustrator 22.0.0, SVG Export Plug-In . SVG Version: 6.00 Build 0)  -->
<svg version="1.1" id="Layer_1" xmlns="http://www.w3.org/2000/svg" xmlns:xlink="http://www.w3.org/1999/xlink" x="0px" y="0px"
	 viewBox="0 0 2500 1190" style="enable-background:new 0 0 2500 1190;" xml:space="preserve">
<title>danone</title>
<g>
	<path d="M800.7,433.3c-25.2,38.8-44.4,81.3-56.9,125.9h113.8C845.3,514.5,826,472,800.7,433.3z"/>
	<path d="M1305,548.2c4.8,51.3,50.2,89,101.5,84.2c51.3-4.7,88.9-50.2,84.1-101.5c3-54.3-38.5-100.7-92.8-103.7
		c-54.2,3.1-95.8,49.4-92.8,103.7C1304.5,536.7,1304.5,542.4,1305,548.2z"/>
	<path d="M491.1,427.3h-27.4h-0.4v207.5c28.9,3.8,58.3-0.7,84.7-12.9c32.9-16.4,53.6-50.1,53.3-86.8c2.7-28.8-7.4-57.3-27.5-77.9
		C551,437.2,521.5,426.5,491.1,427.3z"/>
	<path d="M2264.6,388.9c4.4-53.3-32.3-75.9-80.7-94.5C1858.7,170.6,1502.8,147.2,1161,146.9c-300.4,2.2-598.2,55.4-880.8,157.4
		c-27.3,9.7-45.4,35.6-45.2,64.4v407.2c1.9,27.3,21.2,50.2,47.6,56.9c298.7,130.8,619.9,202,945.8,209.8
		c346.7-4.6,688.8-80.1,1005.2-221.9c19.7-10.9,31.8-32,31-54.5V388.9z M1569,375.6h56.5c54.5,42,102.1,92.2,141.2,148.9l0.1-148.9
		h67.8v308.7h-62.2c-26-81.2-73.6-153.8-137.6-210.2v209.8H1569V375.6z M1397.9,366.4c88.2,3,157.5,76.4,155.8,164.6
		c4.3,85.9-61.8,159.1-147.7,163.5c-85.9,4.3-159.1-61.8-163.5-147.7c-0.3-5.3-0.3-10.5,0-15.8
		C1240.7,442.9,1309.9,369.7,1397.9,366.4z M962.1,375.6h56.5c54.5,42,102.1,92.2,141.2,148.9l0.1-148.9h67.4v308.7h-60.2
		c-26-81.2-73.6-153.8-137.6-210.2v209.8h-67.4V375.6z M834.5,375.7C897.9,445.9,937,548.4,949.9,684h-70.6
		c-1.8-23.7-4.6-46.3-8.4-67.8H728.8c-3.9,22.5-6.7,45-8.4,67.8h-67.8c16.1-138.1,54.5-242.2,116.6-308.4L834.5,375.7z M607.7,652.2
		c-38.6,28.7-85.7,43.9-133.9,43.2c-27.1,0.3-54.1-2.1-80.7-7.3c0,0,2.4-24.2,2.4-69.4c0-54.5,8.1-207.1-6-245
		c23.4-3.3,46.9-5.5,70.6-6.4c48.2-4.5,96.7,4.7,140,26.6c44.1,27,69.5,76.3,65.8,127.9C668.3,572,646.7,620.3,607.7,652.2z
		 M1850.2,775.9c-367.6,255.8-760.2,286.5-1192.3,4c-25.5-16.6-31.5-63.3,29.4-34.3c384.1,183.6,761.4,182,1139.5-2.8
		C1853.8,729.5,1874.4,759.3,1850.2,775.9z M2132,553.7h-214.7c1.1,45.6,38.8,81.6,84.3,80.7c23.6,0.8,46.4-8.4,62.9-25.4l65,15.7
		l0.4,1.2c-31.2,44.6-82.3,71-136.8,70.6c-34.7,1.8-68.7-10.5-94-34.3c-32.4-32.6-49.7-77.3-47.6-123.1
		c-3.5-45.7,10.9-91.1,40.3-126.3c27.5-29.6,66.4-46.1,106.9-45.2c38.5-3.7,76.5,11.3,102.1,40.3c20.6,26.6,32.5,58.9,34.3,92.4
		C2136.1,518.2,2135,536.1,2132,553.7z"/>
	<path d="M2000,424.5c-42.1,1.8-76.5,34.3-80.7,76.3h152.5c0.1-1,0.1-2,0.1-2.9C2072.3,457.7,2040.1,424.9,2000,424.5z"/>
</g>
</svg>
