<?xml version="1.0" encoding="utf-8"?>
<!-- Generator: Adobe Illustrator 22.0.0, SVG Export Plug-In . SVG Version: 6.00 Build 0)  -->
<svg version="1.1"
	 id="svg3794" xmlns:cc="http://creativecommons.org/ns#" xmlns:dc="http://purl.org/dc/elements/1.1/" xmlns:rdf="http://www.w3.org/1999/02/22-rdf-syntax-ns#" xmlns:svg="http://www.w3.org/2000/svg"
	 xmlns="http://www.w3.org/2000/svg" xmlns:xlink="http://www.w3.org/1999/xlink" x="0px" y="0px" viewBox="0 0 300 174"
	 style="enable-background:new 0 0 300 174;" xml:space="preserve">
<g id="layer1" transform="translate(-318.33375,-439.74274)">
	<g id="g3460" transform="matrix(4.579965,0,0,-4.579965,468.34291,456.8459)">
		<path id="path3462" d="M0-0.6c-4,0-7.7-1.6-10.3-4.3c-2.7-2.6-4.3-6.3-4.3-10.3s1.6-7.7,4.3-10.3C-7.7-28.2-4-29.9,0-29.9
			s7.7,1.7,10.3,4.3c2.7,2.6,4.3,6.3,4.3,10.3S13-7.5,10.3-4.9C7.7-2.2,4-0.6,0-0.6 M0,1.1c9.1,0,16.4-7.4,16.4-16.4
			c0-9.1-7.3-16.4-16.4-16.4s-16.4,7.3-16.4,16.4C-16.4-6.2-9.1,1.1,0,1.1"/>
	</g>
	<g id="g3464" transform="matrix(4.579965,0,0,-4.579965,397.87238,588.54693)">
		<path id="path3466" d="M7.6,13.6c0,1-0.7,1.5-1.5,1.5H5.6v-3h0.6C6.9,12.1,7.6,12.6,7.6,13.6 M17.4,12.6l-4-3.2l-3.7,2.9
			c-0.5-1.3-1.8-2.2-3.3-2.2H3.2v7.1h3.2c1.6,0,2.8-1.1,3.3-2.2l3.7,2.9l1.4-1.1l-3.3-2.7l0.7-0.5l3.4,2.7l1.4-1.1l-3.4-2.7l0.7-0.5
			l3.4,2.7v2.4h2.5v-5h2.5v-2.1h-4.9C17.4,10.1,17.4,12.6,17.4,12.6z M25.4,12.2h2.5v-2.1H23v7.1h2.5L25.4,12.2L25.4,12.2z"/>
	</g>
</g>
</svg>
