<?xml version="1.0" encoding="utf-8"?>
<!-- Generator: Adobe Illustrator 22.0.0, SVG Export Plug-In . SVG Version: 6.00 Build 0)  -->
<svg version="1.1"
	 id="svg25166" xmlns:cc="http://creativecommons.org/ns#" xmlns:dc="http://purl.org/dc/elements/1.1/" xmlns:rdf="http://www.w3.org/1999/02/22-rdf-syntax-ns#" xmlns:svg="http://www.w3.org/2000/svg"
	 xmlns="http://www.w3.org/2000/svg" xmlns:xlink="http://www.w3.org/1999/xlink" x="0px" y="0px" viewBox="0 0 500 84.9"
	 style="enable-background:new 0 0 500 84.9;" xml:space="preserve">
<g id="layer1" transform="translate(-290.98452,-700.28067)">
	<g id="g24728" transform="matrix(4.3916816,0,0,-4.3916816,671.33312,701.29078)">
		<path id="path24730" d="M0,0v-14.8c0-1,0.5-1.5,1.4-1.5c0,0,4.9,0,4.9,0v-1.7c0-0.2-0.1-0.3-0.3-0.3h-7.9c-2.4,0-2.8,1.3-2.8,2.6
			V-1c0,0.7,0.3,1,1.1,1L0,0"/>
	</g>
	<g id="g24732" transform="matrix(4.3916816,0,0,-4.3916816,631.4562,701.29078)">
		<path id="path24734" d="M0,0l0-17.3c0-0.8-0.3-1-1-1h-3.7V-1c0,0.6,0.2,1,1,1L0,0"/>
	</g>
	<g id="g24736" transform="matrix(4.3916816,0,0,-4.3916816,291.98452,712.33453)">
		<path id="path24738" d="M0,0c0,1.4,0,2.5,2.3,2.5h10V0.8c0-0.1-0.1-0.2-0.2-0.2l-6,0c-0.8,0-1.2-0.4-1.2-1.2v-4.6h7.1l0-1.8
			c0-0.2-0.1-0.2-0.3-0.2H4.9v-7.4c0-0.7-0.4-1-1.1-1H0V0"/>
	</g>
	<g id="g24740" transform="matrix(4.3916816,0,0,-4.3916816,377.99912,701.28288)">
		<path id="path24742" d="M0,0v-13.9c0-1.2,0.2-2,1-2.5c1.1-0.6,3-0.7,4.2,0C6-16,6.3-15.3,6.3-13.9v13c0,0.6,0.2,0.9,1,0.9h3.6
			l0-13.5c0-3.1-2-4.4-3.7-4.9c-2.3-0.6-5.8-0.6-8,0c-2.6,0.8-3.8,2.3-3.8,4.9l0,12.6C-4.7-0.3-4.5,0-3.8,0H0"/>
	</g>
	<g id="g24744" transform="matrix(4.3916816,0,0,-4.3916816,766.24748,701.29518)">
		<path id="path24746" d="M0,0c-0.9,0-1.4-0.4-1.7-1.3l-3-12.6l-0.1,0L-7.8,0H-12c-0.8,0-1.1-0.4-1.1-1.1v-17.2h1.8
			c0.3,0,0.4,0.1,0.4,0.4v14.4h0.3l3.8-14.8h2.5c0.9,0,1.3,0.4,1.5,1.3L0.6-3.4h0.3l0-14.8l3.3,0c0.8,0,1.2,0.3,1.2,1.1V0L0,0"/>
	</g>
	<g id="g24748" transform="matrix(4.3916816,0,0,-4.3916816,523.56404,744.83473)">
		<path id="path24750" d="M0,0h-4.7v-8.3H-1c0.7,0,1,0.2,1,1C0-7.4,0-3.8,0,0"/>
	</g>
	<g id="g24752" transform="matrix(4.3916816,0,0,-4.3916816,522.36774,729.2021)">
		<path id="path24754" d="M0,0c0.2,0.1,0.3,0.2,0.3,0.5v5.8h-3.6c-0.8,0-1-0.4-1-1v-8.8L0,0"/>
	</g>
	<g id="g24756" transform="matrix(4.3916816,0,0,-4.3916816,451.99716,775.07894)">
		<path id="path24758" d="M0,0c2,0.3,2.7,1.5,2.7,3.3v12.5c0,0.8,0.4,1,0.9,1h3.7V4.9C7.4,2,6.8,0.6,5-0.7C4.1-1.3,2.6-2.1-0.8-2.1
			c-1.9,0-2.8,0.1-2.9,0.1C-3.9-1.9-4-1.8-4-1.6v1.5C-3.2-0.1-1.4-0.2,0,0"/>
	</g>
	<g id="g24760" transform="matrix(4.3916816,0,0,-4.3916816,554.66196,701.28288)">
		<path id="path24762" d="M0,0c-2.3,0-2.3-1.1-2.3-2.5v-4.7c0-0.1,0-0.1-0.1-0.2l-3.2-2.5h3.3v-8.3h3.7c0.8,0,1.1,0.3,1.1,1v7.4h6.8
			c0.2,0,0.3,0.1,0.3,0.2v1.8H2.6v4.6C2.6-2.4,3-2,3.8-2l6,0C10-2,10-1.9,10-1.8L10,0H0"/>
	</g>
</g>
</svg>
