<?xml version="1.0" encoding="utf-8"?>
<!-- Generator: Adobe Illustrator 22.0.0, SVG Export Plug-In . SVG Version: 6.00 Build 0)  -->
<svg version="1.1" id="Layer_1" xmlns="http://www.w3.org/2000/svg" xmlns:xlink="http://www.w3.org/1999/xlink" x="0px" y="0px"
	 viewBox="0 0 2500 434" style="enable-background:new 0 0 2500 434;" xml:space="preserve">
<g>
	<path d="M1531.3,47.7h-166l-271,281.1h132.1l37.2-37.3h155.8l3.4,37.3h135.5L1531.3,47.7z M1334.9,217l71.1-74.5l6.8,74.5H1334.9z"
		/>
	<polygon points="1063.9,47.7 952.1,328.8 1084.2,328.8 1196,47.7 	"/>
	<path d="M786.2,166.2l-20.3,57.6h50.8c-11.1,22.9-50.3,35.6-94.8,37.3c-42.3-1.6-75.1-13.3-71.1-54.2
		c4.5-41.6,47.9-103,135.5-101.6c25.7-0.3,52.1,8.1,61,33.9h145.6C1007.7,98.5,996,28.7,793,37.5c-77.4,0.7-241.5,13.4-287.9,166
		c-15,54.9,15.7,159.7,213.4,128.7c47.9-8.2,153.8-42.1,199.8-6.8l64.4-159.2H786.2z"/>
</g>
<path d="M1578.7,328.8l111.8-281.1h159.2l74.5,152.4l61-152.4h121.9l-111.8,281.1h-145.6L1768.4,156l-67.7,172.7H1578.7z
	 M2130.8,47.7l-30.5,74.5h121.9L2141,328.8h125.3l81.3-206.6h121.9l30.5-74.5L2130.8,47.7z M433.9,230.5
	c-26.4-18.8-100.5-55.8-199.8,13.5c14.7-27,84.5-104.3,199.8-57.6C436.1,199.1,435,219.2,433.9,230.5z"/>
<path d="M423.8,152.6c-142.7-69.1-227.9,35.9-274.3,84.7c-48.8,46.5-133.7,32.3-145.6,27.1c-2.9-16.1-4.6-31.5-3.4-47.4
	C-0.8,96.8,96.7-0.7,217.1,0.2C312.3-0.8,396.7,61.4,423.8,152.6z M430.5,261c-88.7-60.9-151.1-4.8-172.7,23.7
	c-85.3,81.6-224.3,23.5-243.9,13.5C48,379,126,434.8,217.2,433.7C322.4,434.9,410.4,359.9,430.5,261z M2378.8,340.1
	c29.5,0,53.3-24,53.3-53.6c0-29.4-23.9-53.3-53.3-53.3c-29.6,0-53.6,24-53.6,53.3C2325.1,316.1,2349.2,340.1,2378.8,340.1
	L2378.8,340.1z M2378.8,333c-26.1,0-45.2-20.4-45.2-46.6c0-26,19.1-46.3,45.2-46.3c26,0,44.9,20.3,44.9,46.3
	C2423.7,312.7,2404.8,333,2378.8,333z M2387.4,288.8c10.6-0.3,18.8-4.7,18.8-16.4c0-9.9-5.4-15.8-21.2-15.8h-26.1v59.7h7.3v-27.5
	h13.4l17.1,27.5h8.7L2387.4,288.8z M2366.2,283v-21.2h17.1c7.3,0,15,1.1,15,10.4c0,12.1-12.4,10.7-20.9,10.7H2366.2L2366.2,283z"/>
</svg>
