<?xml version="1.0" encoding="utf-8"?>
<!-- Generator: Adobe Illustrator 22.0.0, SVG Export Plug-In . SVG Version: 6.00 Build 0)  -->
<svg version="1.1" id="Layer_1" xmlns:svg="http://www.w3.org/2000/svg"
	 xmlns="http://www.w3.org/2000/svg" xmlns:xlink="http://www.w3.org/1999/xlink" x="0px" y="0px" viewBox="0 0 275.3 174.5"
	 style="enable-background:new 0 0 275.3 174.5;" xml:space="preserve">
<g>
	<title>Layer 1</title>
	<path id="svg_1" d="M56.8,132.2l3.2,0.4c1.5,0.2,1.6,1.4,1.6,2.1v3.7H46.9v-3.7c0-0.8,0.2-2,1.6-2.1l3.2-0.4V129H32.7v3.2l3.2,0.4
		c1.5,0.2,1.6,1.4,1.6,2.1v12.4c0,0.8-0.2,2-1.6,2.1l-3.2,0.4v3.2h19.1v-3.2l-3.2-0.4c-1.5-0.2-1.6-1.4-1.6-2.1v-3.7h14.7v3.7
		c0,0.8-0.2,2-1.6,2.1l-3.2,0.4v3.2h19.1v-3.2l-3.2-0.4c-1.5-0.2-1.6-1.4-1.6-2.1v-12.4c0-0.8,0.2-2,1.6-2.1l3.2-0.4V129H56.8
		L56.8,132.2L56.8,132.2z"/>
	<path id="svg_2" d="M183.9,129.1h-23.5v3.2l2.8,0.3c1,0.2,1.7,0.5,1.7,1.9v12.6c0,0.8-0.2,2-1.6,2.1l-3.2,0.4v3.2h23.8
		c8.5,0,15.6-3.4,15.6-11.9C199.5,132.5,192.5,129.1,183.9,129.1 M182.2,148.3h-8v-14.7h8c4.7,0,6.3,2.2,6.3,7.3
		C188.5,146,186.9,148.3,182.2,148.3"/>
	<path id="svg_3" d="M239.5,149.3c-1.5-0.2-2-1.1-2.4-1.8l-11-16.8c-0.8-1.2-1.4-1.6-2.5-1.6h-18v3.2l4.4,0.5c0.6,0.1,1.5,0.9,0.8,2
		l-8.2,13.2c-0.3,0.5-0.8,1.1-1.7,1.3l-3.2,0.4v3.2h15.2v-3.2l-2.6-0.2c-1.1-0.2-1.8-0.9-1.1-1.8l1.2-2h14.7l1.1,1.6
		c1,1.5-0.2,2.1-1.3,2.1l-2.7,0.3v3.2h20.6v-3.2L239.5,149.3z M212.8,141.3l4.5-7.3l4.8,7.3H212.8z"/>
	<path id="svg_4" d="M143.4,132.2l3.2,0.4c1.5,0.2,1.6,1.4,1.6,2.1v11.9l-12.6-16.6c-0.5-0.8-1.1-1-2.4-1h-16.3v3.2l3.2,0.4
		c1.5,0.2,1.6,1.4,1.6,2.1v12.4c0,0.8-0.2,2-1.6,2.1l-3.2,0.4v3.2h15.3v-3.2l-3.2-0.4c-1.5-0.2-1.6-1.4-1.6-2.1v-11.9l12.6,16.6
		c0.6,0.8,1.1,1,2.4,1h0.2h11.5v-18.1c0-0.8,0.2-2,1.6-2.1l3.2-0.4V129h-15.2L143.4,132.2L143.4,132.2z"/>
	<path id="svg_5" d="M96.3,128.2c-15.5,0-19.5,6.8-19.5,12.7c0,5.9,4,12.7,19.5,12.7s19.5-6.8,19.5-12.7S111.8,128.2,96.3,128.2
		 M96.3,149.2c-6,0-8.5-2.5-8.5-8.2s2.5-8.2,8.5-8.2c6,0,8.5,2.5,8.5,8.2S102.3,149.2,96.3,149.2"/>
	<path id="svg_6" d="M164,28.7c-2.6,11.7-3.7,17.1-5.8,25.5c-2.1,8.1-3.7,15.6-6.4,19.3c-2.7,3.7-6.5,4.5-9,4.8
		c-1.3,0.2-2.3,0.2-5.1,0.2c-2.8,0-3.8-0.1-5.1-0.2c-2.5-0.3-6.3-1.1-9-4.8c-2.7-3.7-4.4-11.2-6.3-19.3c-2.1-8.5-3.2-13.8-5.8-25.5
		c0,0-2.6,0.1-3.7,0.2c-1.6,0.1-2.8,0.2-4.1,0.4c0,0,1.5,24,2.2,34.3c0.7,10.7,2,28.8,3.1,42.4c0,0,2.2,0.4,5.9,0.5
		c3.8,0.2,5.6,0.2,5.6,0.2c1.6-6,3.5-14.4,5.7-17.9c1.8-2.9,4.6-3.2,6.2-3.4c2.4-0.3,4.6-0.4,5.5-0.4l0,0l0,0c1,0,3.1,0,5.5,0.4
		c1.6,0.2,4.4,0.5,6.2,3.4c2.2,3.6,4.2,11.9,5.7,17.9c0,0,1.7,0,5.5-0.2c3.7-0.2,5.9-0.5,5.9-0.5c1.1-13.7,2.4-31.7,3.1-42.4
		c0.7-10.2,2.2-34.3,2.2-34.3c-1.3-0.2-2.6-0.3-4.1-0.4C166.6,28.7,164,28.7,164,28.7"/>
	<path id="svg_7" d="M194.3,42.9c-1.5-15.3-11.8-18.5-20.7-20c-4.5-0.8-12.5-1.4-17.6-1.6c-4.5-0.3-15-0.5-18.2-0.5
		S124,21,119.5,21.3c-5.1,0.2-13.1,0.8-17.6,1.6c-8.9,1.5-19.2,4.7-20.7,20c-0.5,4.2-0.5,9.6-0.5,15.4c0.2,9.7,1,16.2,1.5,20.8
		c0.3,3.1,1.6,12.4,3.3,17.3c2.3,6.6,4.4,8.5,6.8,10.5c4.4,3.6,11.8,4.7,13.3,5c8.2,1.5,24.9,1.8,32.3,1.8c7.3,0,24-0.2,32.3-1.8
		c1.5-0.3,8.9-1.4,13.3-5c2.4-2,4.5-3.9,6.8-10.5c1.7-4.8,3-14.2,3.3-17.3c0.5-4.5,1.3-11.1,1.5-20.8
		C194.9,52.5,194.7,47,194.3,42.9 M188.7,68.6c-0.9,12.2-2,19.5-3.5,24.8c-1.4,4.7-3.1,7.7-5.5,9.9c-4.1,3.7-9.8,4.5-13.1,5
		c-7.2,1.1-19.3,1.5-28.8,1.5c-9.5,0-21.6-0.4-28.8-1.5c-3.4-0.5-9-1.3-13.1-5c-2.4-2.2-4.1-5.3-5.5-9.9c-1.5-5.3-2.7-12.6-3.5-24.8
		c-0.5-7.3-0.5-19.2,0.4-25.6c1.1-9.6,5.9-14.4,16-16.2c4.7-0.8,11.1-1.5,17.2-1.8c4.9-0.3,12.8-0.5,17.3-0.5
		c4.4-0.1,12.4,0.2,17.3,0.5c6,0.3,12.4,0.9,17.2,1.8c10.2,1.8,14.9,6.6,16.1,16.2C189.1,49.3,189.2,61.2,188.7,68.6"/>
</g>
</svg>
