<?xml version="1.0" encoding="utf-8"?>
<!-- Generator: Adobe Illustrator 22.0.0, SVG Export Plug-In . SVG Version: 6.00 Build 0)  -->
<svg version="1.1" id="Layer_1" xmlns="http://www.w3.org/2000/svg" xmlns:xlink="http://www.w3.org/1999/xlink" x="0px" y="0px"
	 viewBox="0 0 200 50.7" style="enable-background:new 0 0 200 50.7;" xml:space="preserve">
<g>
	<path d="M37.7,37.6c0-0.9,0-2.4-0.2-2.8c-0.1-0.2-0.3-0.2-0.6-0.3h-0.3c-0.1-0.1-0.1-0.2,0-0.3c0.5,0,1,0,1.5,0c0.5,0,1,0,1.4,0
		c0.1,0.1,0.1,0.2,0,0.3h-0.3c-0.3,0-0.5,0.1-0.6,0.3c-0.2,0.4-0.2,1.9-0.2,2.7V39c0,1.2-0.2,2.4-1,3.2c-0.5,0.8-1.6,1.1-2.6,1.1
		s-1.8-0.2-2.5-0.8c-0.8-0.5-1.1-1.5-1.1-3.1v-3.1c0-1.4,0-1.6-0.8-1.7H30c-0.1-0.1-0.1-0.3,0-0.3c0.6,0,1.1,0,1.6,0
		c0.5,0,1,0,1.6,0c0.1,0,0.1,0.2,0,0.3H33c-0.8,0.1-0.8,0.3-0.8,1.7v2.9c0,2.2,0.6,3.6,2.7,3.6c1.9,0,2.7-1.5,2.7-3.6v-1.6H37.7z"/>
	<path d="M55.3,40.8c0,0.4,0,1.9,0,2.4c0,0.1-0.1,0.1-0.2,0.1c-0.1-0.2-0.5-0.6-1.7-2.1l-3.1-3.6c-0.3-0.4-1.3-1.5-1.5-1.8l0,0
		c0,0.1-0.1,0.4-0.1,0.9v3c0,0.6,0,2.4,0.2,2.8c0.1,0.1,0.3,0.2,0.6,0.2h0.4c0.1,0.1,0.1,0.2,0,0.3c-0.6,0-1.1,0-1.5,0
		c-0.5,0-1,0-1.4,0c-0.1-0.1-0.1-0.2,0-0.3h0.3c0.3,0,0.5-0.1,0.5-0.2c0.2-0.4,0.2-2.2,0.2-2.8v-3.9c0-0.3,0-0.6-0.3-1
		c-0.2-0.2-0.5-0.3-0.9-0.3h-0.2c-0.1-0.1-0.1-0.3,0-0.3c0.5,0,1.3,0,1.5,0c0.2,0,0.4,0,0.6,0c0.2,0.6,1.8,2.5,2.3,2.9l1.3,1.5
		c1,1.1,1.6,1.7,2.2,2.4l0,0c0.1-0.1,0.1-0.3,0.1-0.5v-2.9c0-0.6,0-2.4-0.2-2.8c-0.1-0.1-0.3-0.2-0.9-0.2h-0.2
		c-0.1-0.1-0.1-0.3,0-0.3c0.6,0,1.1,0,1.6,0s1,0,1.4,0c0.1,0.1,0.1,0.2,0,0.3h-0.2c-0.4,0.1-0.6,0.2-0.8,0.3
		c-0.2,0.4-0.2,2.2-0.2,2.8L55.3,40.8L55.3,40.8z"/>
	<path d="M65.2,36.3c0-1.4,0-1.6-0.9-1.7H64c-0.1-0.1,0-0.3,0-0.3c0.6,0,1.1,0,1.7,0c0.5,0,1,0,1.6,0c0.1,0,0.1,0.3,0,0.3h-0.3
		c-0.8,0.1-0.9,0.3-0.9,1.7V41c0,1.4,0,1.6,0.9,1.7h0.3c0.1,0,0,0.3,0,0.3c-0.6,0-1.1,0-1.6,0c-0.5,0-1,0-1.7,0
		c-0.1,0-0.1-0.2,0-0.3h0.3c0.8-0.1,0.9-0.3,0.9-1.7V36.3z"/>
	<path d="M76.1,35.6c-0.3-0.8-0.5-1.1-1.1-1.1h-0.2c-0.1-0.1-0.1-0.2,0-0.3c0.4,0,0.9,0,1.4,0c0.5,0,1.1,0,1.6,0
		c0.1,0.1,0.1,0.2,0,0.3h-0.2c-0.5,0.1-0.6,0.1-0.6,0.2c0,0.1,0.2,0.9,0.6,1.8c0.6,1.5,1.2,3.1,1.9,4.7c0.4-0.9,1-2.3,1.3-3
		c0.4-0.9,1-2.4,1.3-3c0.1-0.3,0.1-0.4,0.1-0.5s-0.1-0.2-0.6-0.2h-0.2c-0.1-0.1-0.1-0.3,0-0.3c0.3,0,0.9,0,1.4,0c0.4,0,0.9,0,1.3,0
		c0.1,0.1,0.1,0.2,0,0.3h-0.4c-0.3,0-0.5,0.2-0.6,0.4c-0.3,0.6-0.9,1.7-1.5,3l-0.8,1.6c-0.5,1.2-1.2,2.8-1.4,3.5h-0.1
		c-0.1,0-0.1,0-0.2,0c-0.1-0.5-0.4-1.2-0.6-1.7L76.1,35.6z"/>
	<path d="M92.2,36.3c0-1.4,0-1.6-0.9-1.7h-0.2c-0.1-0.1,0-0.3,0-0.3c0.5,0,1.1,0,1.6,0h2.5c0.9,0,1.6,0,1.8,0
		c0.1,0.2,0.1,1.2,0.2,1.8c-0.1,0.1-0.2,0.1-0.3,0c-0.2-0.6-0.3-1.1-1-1.3c-0.3-0.1-0.8-0.1-1.3-0.1h-1c-0.4,0-0.4,0-0.4,0.5v2.7
		c0,0.3,0,0.3,0.4,0.3h0.8c0.5,0,1,0,1.2-0.1c0.2-0.1,0.2-0.1,0.3-0.4l0.1-0.5c0.1-0.1,0.3-0.1,0.3,0c0,0.3-0.1,0.9-0.1,1.4
		c0,0.4,0.1,1,0.1,1.3c-0.1,0.1-0.3,0.1-0.3,0L96,39.3c0-0.2-0.1-0.4-0.4-0.5c-0.2-0.1-0.5-0.1-1.1-0.1h-0.8c-0.4,0-0.4,0-0.4,0.3
		v1.8c0,0.8,0,1.2,0.2,1.4c0.1,0.1,0.4,0.3,1.6,0.3c1.1,0,1.4,0,1.7-0.2c0.2-0.1,0.6-0.6,1-1.3c0.1-0.1,0.3,0,0.3,0.1
		c-0.1,0.4-0.4,1.5-0.6,1.8c-1.2,0-2.4,0-3.6,0h-1.2c-0.5,0-1.1,0-1.8,0c-0.1,0-0.1-0.2,0-0.3h0.4c0.8-0.1,0.9-0.2,0.9-1.6
		L92.2,36.3L92.2,36.3z"/>
	<path d="M106.8,36.3c0-1.3,0-1.5-0.5-1.6h-0.4c-0.1-0.1-0.1-0.3,0-0.3c0.8-0.1,1.6-0.1,3-0.1c0.9,0,1.6,0.1,2.3,0.4
		c0.6,0.3,1.1,1,1.1,1.8c0,1.3-1,1.9-1.6,2.3c-0.1,0.1,0,0.2,0.1,0.3c1.1,1.7,1.7,2.8,2.7,3.6c0.2,0.2,0.5,0.3,1,0.3
		c0.1,0,0.1,0.1,0,0.2c-0.1,0-0.3,0.1-0.5,0.1c-1.2,0-1.8-0.3-2.8-1.7c-0.3-0.5-0.9-1.4-1.3-2.1c-0.2-0.3-0.4-0.4-1-0.4
		c-0.6,0-0.6,0-0.6,0.3v1.7c0,1.4,0,1.5,0.8,1.6h0.3c0.1,0.1,0.1,0.3,0,0.3c-0.6,0-1.1,0-1.6,0c-0.5,0-1.1,0-1.6,0
		c-0.1,0-0.1-0.2,0-0.3h0.3c0.8-0.1,0.8-0.2,0.8-1.6L106.8,36.3L106.8,36.3z M107.9,38.1c0,0.2,0,0.4,0,0.4s0.2,0.1,1,0.1
		c0.4,0,1,0,1.4-0.3c0.3-0.3,0.6-0.8,0.6-1.6c0-1.1-0.6-2.1-2.2-2.1c-0.9,0-0.9,0-0.9,0.4V38.1L107.9,38.1z"/>
	<path d="M123,43.3c-1.1,0-1.8-0.3-2.1-0.5c-0.1-0.3-0.3-1.3-0.3-1.8c0.1-0.1,0.2-0.1,0.3,0c0.2,0.6,0.8,1.9,2.3,1.9
		c1.1,0,1.7-0.8,1.7-1.5c0-0.5-0.1-1.3-1.1-1.8l-1.3-0.9c-0.6-0.4-1.4-1.2-1.4-2.3c0-1.3,1-2.3,2.7-2.3c0.4,0,0.9,0.1,1.3,0.2
		c0.2,0.1,0.3,0.1,0.4,0.1c0.1,0.3,0.2,1.1,0.2,1.6c0,0.1-0.2,0.1-0.3,0c-0.2-0.6-0.5-1.5-1.8-1.5c-1.3,0-1.6,0.9-1.6,1.5
		c0,0.8,0.6,1.3,1.2,1.6l1.1,0.6c0.9,0.5,1.6,1.3,1.6,2.6C125.9,42.3,124.8,43.3,123,43.3"/>
	<path d="M135,36.3c0-1.4,0-1.6-0.9-1.7h-0.3c-0.1-0.1,0-0.3,0-0.3c0.6,0,1.1,0,1.7,0c0.5,0,1,0,1.6,0c0.1,0,0.1,0.3,0,0.3h-0.3
		c-0.8,0.1-0.9,0.3-0.9,1.7V41c0,1.4,0,1.6,0.9,1.7h0.3c0.1,0,0.1,0.3,0,0.3c-0.6,0-1.1,0-1.6,0c-0.5,0-1,0-1.7,0
		c-0.1,0-0.1-0.2,0-0.3h0.3c0.8-0.1,0.9-0.3,0.9-1.7V36.3z"/>
	<path d="M149.9,41c0,1.4,0,1.6,0.8,1.6h0.4c0.1,0,0,0.3,0,0.3c-0.8,0-1.2,0-1.7,0c-0.5,0-1,0-1.8,0c-0.1,0-0.1-0.2,0-0.3h0.4
		c0.8-0.1,0.9-0.2,0.9-1.6v-6c0-0.4,0-0.4-0.4-0.4h-0.8c-0.5,0-1.3,0-1.6,0.3c-0.3,0.3-0.4,0.5-0.6,1c-0.1,0.1-0.3,0-0.3-0.1
		c0.2-0.6,0.4-1.5,0.5-1.9h0.2c0.1,0.4,0.5,0.4,1.2,0.4h5.4c0.8,0,0.9,0,1.1-0.3c0.1,0,0.2,0,0.2,0c-0.1,0.5-0.2,1.6-0.2,2.1
		c0,0.1-0.3,0.1-0.3,0c0-0.3-0.1-0.9-0.3-1c-0.3-0.2-0.9-0.3-1.5-0.3h-1c-0.4,0-0.4,0-0.4,0.4V41z"/>
	<path d="M165.2,41c0,1.4,0.1,1.6,0.8,1.7h0.5c0.1,0.1,0,0.3,0,0.3c-0.9,0-1.3,0-1.8,0c-0.5,0-1.1,0-1.7,0c-0.1,0-0.1-0.2,0-0.3h0.4
		c0.8-0.1,0.8-0.2,0.8-1.7v-0.6c0-0.8,0-0.9-0.4-1.6l-1.6-3.1c-0.4-0.9-0.6-1-1.1-1l-0.3-0.1c-0.1-0.1-0.1-0.3,0-0.3
		c0.4,0,0.9,0,1.5,0c0.6,0,1.1,0,1.4,0c0.1,0,0.1,0.2,0,0.3h-0.2c-0.4,0.1-0.5,0.1-0.5,0.2c0,0.1,0.3,0.9,0.4,1.1c0.5,1,1,2.1,1.5,3
		c0.4-0.8,0.9-1.5,1.3-2.3c0.3-0.6,0.9-1.6,0.9-1.7s-0.2-0.2-0.5-0.2h-0.2c-0.1-0.1-0.1-0.3,0-0.3c0.4,0,0.9,0,1.3,0s0.8,0,1.3,0
		c0.1,0.1,0.1,0.2,0,0.3l-0.3,0.1c-0.6,0.1-1.1,1-1.7,2.2l-0.9,1.4c-0.5,1-0.6,1.2-0.6,2.2L165.2,41L165.2,41z"/>
</g>
<g>
	<path d="M7.5,10.2c0-3.5-0.3-3.8-2.2-3.9L4.7,6.2C4.5,6,4.6,5.5,4.8,5.4c1.7,0.1,2.8,0.1,4.1,0.1c1.2,0,2.3,0,3.5-0.1
		c0.2,0.1,0.2,0.6,0.1,0.8H12c-1.8,0.2-1.8,0.6-1.8,3.9v11.5c0,2.4-0.1,4.5-0.8,6c-1,2.5-3.2,4.4-6.1,4.4c-0.3,0-1.3,0-1.3-0.6
		c0-0.5,0.4-1.4,1.1-1.4c0.3,0,0.8,0.1,1.2,0.2c0.4,0.1,0.9,0.2,1.3,0.2c0.6,0,1-0.3,1.2-0.8c0.8-1.4,0.8-6.1,0.8-7.7
		C7.5,21.9,7.5,10.2,7.5,10.2z"/>
	<path d="M12.4,17.4c0-5.2,3.9-9.2,9.2-9.2c6,0,9,4.3,9,8.9c0,5.2-4,9.1-9,9.1C15.9,26.2,12.4,22.1,12.4,17.4 M28,18
		c0-4.3-1.9-8.9-6.8-8.9c-2.7,0-6.2,1.8-6.2,7.6c0,3.8,1.8,8.9,7,8.9C25.1,25.4,28,23.1,28,18"/>
	<path d="M36.5,17.4c-1.3,0-1.3,0-1.3,0.9V22c0,2.7,0.1,3.1,1.6,3.2l0.8,0.1c0.1,0.1,0.1,0.5,0,0.6c-1.4,0-2.3-0.1-3.2-0.1
		c-1.1,0-1.9,0-3,0.1c-0.1-0.1-0.2-0.5,0-0.6l0.4-0.1c1.4-0.2,1.5-0.5,1.5-3.2v-9.3c0-2.7-0.2-3.1-1.5-3.2h-0.6
		c-0.1-0.1-0.1-0.5,0-0.6c1.3,0,2.2,0.1,3.2,0.1c1,0,1.9,0,3-0.1c0.1,0.1,0.2,0.5,0,0.6h-0.5c-1.5,0.1-1.5,0.5-1.5,3.2v3
		c0,0.8,0,0.9,1.3,0.9h7.5c1.3,0,1.3,0,1.3-0.9v-3c0-2.7,0-3.1-1.6-3.2h-0.5c-0.1-0.1-0.1-0.5,0-0.6c1.2,0,2.1,0.1,3.1,0.1
		c1,0,1.9,0,3-0.1c0.1,0.1,0.2,0.5,0,0.6h-0.5c-1.5,0.1-1.5,0.5-1.5,3.2V22c0,2.7,0,3,1.5,3.2l0.6,0.1c0.1,0.1,0.1,0.5,0,0.6
		c-1.2,0-2.2-0.1-3.1-0.1c-1.1,0-1.9,0-3.1,0.1c-0.1-0.1-0.2-0.5,0-0.6l0.5-0.1c1.6-0.2,1.6-0.5,1.6-3.2v-3.7c0-0.8,0-0.9-1.3-0.9
		H36.5z"/>
	<path d="M67.3,21.3c0,0.8,0,3.9,0.1,4.5c0,0.1-0.2,0.3-0.5,0.3c-0.3-0.4-1.1-1.3-3.4-3.9l-6.1-6.8c-0.6-0.8-2.5-2.9-3-3.5l0,0
		c-0.1,0.3-0.1,0.9-0.1,1.7v5.6c0,1.2,0,4.5,0.4,5.4c0.1,0.3,0.6,0.4,1.3,0.5l0.8,0.1c0.1,0.2,0.1,0.5,0,0.6c-1.2,0-2.1-0.1-3-0.1
		c-1.1,0-1.8,0-2.7,0.1c-0.2-0.1-0.2-0.5,0-0.6l0.6-0.1c0.6-0.1,1-0.2,1.2-0.5c0.3-1,0.3-4.1,0.3-5.3V12c0-0.8,0-1.3-0.5-1.8
		c-0.3-0.3-1-0.5-1.6-0.6h-0.4c-0.1-0.1-0.1-0.5,0-0.6C51.7,9,53.1,9,53.5,9c0.4,0,0.9,0,1.2-0.1c0.5,1.3,3.6,4.8,4.4,5.7l2.5,2.8
		c1.8,1.9,3,3.5,4.3,4.7l0,0c0.1-0.1,0.1-0.5,0.1-1.1v-5.5c0-1.2,0-4.5-0.5-5.4c-0.1-0.2-0.5-0.4-1.6-0.5h-0.4
		c-0.2-0.1-0.1-0.5,0-0.6c1.2,0,2.1,0.1,3,0.1c1.1,0,1.8,0,2.7-0.1c0.2,0.1,0.2,0.5,0,0.6h-0.3c-0.9,0.1-1.3,0.3-1.4,0.5
		c-0.4,1-0.4,4.1-0.4,5.3L67.3,21.3L67.3,21.3z"/>
	<path d="M74.2,26.2c-2.2,0-3.6-0.6-4-1c-0.3-0.5-0.6-2.4-0.6-3.7c0.1-0.2,0.5-0.2,0.6-0.1c0.4,1.3,1.4,3.9,4.4,3.9
		c2.2,0,3.2-1.4,3.2-3c0-1.2-0.2-2.4-2.2-3.7L73.3,17c-1.3-0.9-2.8-2.4-2.8-4.4c0-2.5,1.9-4.4,5.3-4.4c0.8,0,1.7,0.1,2.4,0.3
		c0.3,0.1,0.6,0.1,0.9,0.1c0.2,0.6,0.4,2.1,0.4,3.1c-0.1,0.1-0.5,0.2-0.6,0.1c-0.3-1.3-1.1-2.9-3.6-2.9c-2.6,0-3.1,1.7-3.1,2.9
		c0,1.5,1.3,2.6,2.2,3.2l2.1,1.3c1.6,1,3.2,2.5,3.2,5C79.7,24.2,77.6,26.2,74.2,26.2"/>
	<path d="M95.1,15.8c-1.5,0-1.5,0.1-1.5,1v4.3c0,3.2,0.1,3.7,1.8,3.9l0.9,0.1c0.2,0.1,0.1,0.6-0.1,0.8c-1.6-0.1-2.7-0.1-3.9-0.1
		c-1.3,0-2.4,0.1-3.6,0.1c-0.2-0.1-0.2-0.5-0.1-0.8l0.5-0.1c1.7-0.3,1.7-0.6,1.7-3.9v-11c0-3.2-0.2-3.8-1.8-3.9h-0.6
		c-0.2-0.1-0.1-0.6,0.1-0.8c1.5,0,2.6,0.1,3.9,0.1c1.2,0,2.3,0,3.6-0.1c0.2,0.1,0.2,0.6,0.1,0.8h-0.6c-1.7,0.2-1.8,0.6-1.8,3.9v3.6
		c0,1,0.1,1,1.5,1h8.8c1.5,0,1.5,0,1.5-1v-3.6c0-3.2-0.1-3.7-1.8-3.9l-0.5,0c-0.2-0.1-0.1-0.6,0.1-0.8c1.4,0.1,2.5,0.1,3.7,0.1
		c1.2,0,2.3,0,3.7-0.1c0.2,0.1,0.2,0.6,0.1,0.8h-0.8c-1.7,0.2-1.8,0.6-1.8,3.9v11c0,3.2,0.1,3.7,1.8,3.9l0.8,0.1
		c0.2,0.1,0.1,0.6-0.1,0.8c-1.5-0.1-2.5-0.1-3.7-0.1c-1.3,0-2.4,0-3.7,0.1c-0.2-0.1-0.2-0.5-0.1-0.8l0.5-0.1
		c1.8-0.3,1.8-0.6,1.8-3.9v-4.3c0-1-0.1-1-1.5-1H95.1z"/>
	<path d="M110.4,17.4c0-5.2,3.9-9.2,9.2-9.2c6,0,9,4.3,9,8.9c0,5.2-4,9.1-9,9.1C113.9,26.2,110.4,22.1,110.4,17.4 M126.1,18
		c0-4.3-1.9-8.9-6.8-8.9c-2.7,0-6.2,1.8-6.2,7.6c0,3.8,1.8,8.9,7,8.9C123.2,25.4,126.1,23.1,126.1,18"/>
	<path d="M133.4,21.9c0,2.7,0,3,1.7,3.2l0.6,0.1c0.1,0.1,0.1,0.5,0,0.6c-1.5,0-2.4-0.1-3.4-0.1c-1.1,0-2.1,0-3.1,0.1
		c-0.1-0.1-0.2-0.5,0-0.6l0.5-0.1c1.5-0.2,1.5-0.5,1.5-3.2v-9.6c0-2.2,0-2.6-1.2-2.8l-1-0.1c-0.2-0.1-0.1-0.5,0-0.6
		c1.4-0.2,3-0.2,5.2-0.2s3.8,0.3,5,1.1c1.2,0.8,2.1,2.1,2.1,3.9c0,2.4-1.5,3.6-2.6,4.1c-1.2,0.5-2.5,0.8-3.6,0.8
		c-0.2-0.1-0.2-0.4,0-0.5c2.8-0.5,3.8-2.1,3.8-4.3c0-2.5-1.5-4.1-4.2-4.1c-1.4,0-1.4,0.1-1.4,1L133.4,21.9L133.4,21.9z"/>
	<path d="M144.2,12.5c0-2.7,0-3.1-1.5-3.2H142c-0.1-0.1-0.1-0.5,0-0.6c1.3,0,2.1,0.1,3.2,0.1c1,0,1.9,0,3-0.1c0.1,0.1,0.2,0.5,0,0.6
		h-0.5c-1.5,0.1-1.5,0.5-1.5,3.2v3c0,0.5,0,1,0.3,1c0.2,0,0.5-0.1,0.8-0.3c0.3-0.3,1.1-1,1.3-1.3l2.8-2.8c0.5-0.4,1.7-1.8,2.1-2.2
		c0.1-0.2,0.2-0.3,0.2-0.4c0-0.1-0.1-0.2-0.4-0.2l-0.6-0.1c-0.2-0.2-0.1-0.5,0-0.6c0.9,0,1.9,0.1,2.8,0.1c0.9,0,1.8,0,2.6-0.1
		c0.2,0.1,0.2,0.5,0,0.6c-0.6,0-1.7,0.3-2.4,0.8c-0.8,0.4-2.2,1.6-3.7,3l-2.4,2.2c-0.3,0.3-0.6,0.6-0.6,0.8c0,0.2,0.1,0.4,0.5,0.8
		c2.5,2.8,4.4,5.2,6.5,7.3c0.6,0.6,1.1,1,1.9,1.1l0.5,0.1c0.2,0.1,0.1,0.5,0,0.6c-0.6,0-1.4-0.1-2.6-0.1c-1.1,0-1.9,0-3.1,0.1
		c-0.2,0-0.2-0.5-0.1-0.6l0.6-0.1c0.3,0,0.6-0.1,0.6-0.2c0-0.1-0.2-0.3-0.3-0.6c-0.5-0.6-1.2-1.3-2.2-2.5l-2.1-2.4
		c-1.5-1.6-1.9-2.2-2.5-2.2c-0.4,0-0.4,0.3-0.4,1.3v3.4c0,2.7,0,3.1,1.5,3.2l0.6,0.1c0.1,0.1,0.1,0.5,0,0.6c-1.3,0-2.2-0.1-3.1-0.1
		c-1.1,0-1.9,0-3,0.1c-0.1-0.1-0.2-0.4,0-0.6L143,25c1.4-0.2,1.4-0.5,1.4-3.2L144.2,12.5L144.2,12.5z"/>
	<path d="M162,12.5c0-2.7,0-3.2-1.6-3.4h-0.6c-0.1-0.1-0.1-0.5,0-0.6c1.3,0,2.2,0.1,3.2,0.1c1.1,0,1.9,0,3.2-0.1
		c0.1,0.1,0.2,0.5,0,0.6h-0.6c-1.5,0.1-1.6,0.5-1.6,3.4v9.2c0,2.7,0,3.1,1.6,3.2l0.6,0.1c0.1,0.1,0.1,0.5,0,0.6
		c-1.3,0-2.2-0.1-3.2-0.1c-1.1,0-1.8,0-3.1,0.1c-0.1-0.1-0.2-0.5,0-0.6l0.5-0.1c1.5-0.2,1.6-0.5,1.6-3.2V12.5L162,12.5z"/>
	<path d="M184.6,21.3c0,0.8,0,3.9,0.1,4.5c0,0.1-0.2,0.3-0.5,0.3c-0.3-0.4-1.1-1.3-3.4-3.9l-6.1-6.8c-0.6-0.8-2.5-2.9-3-3.5l0,0
		c-0.1,0.3-0.1,0.9-0.1,1.7v5.6c0,1.2,0,4.5,0.4,5.4c0.1,0.3,0.6,0.4,1.3,0.5l0.8,0.1c0.1,0.2,0.1,0.5,0,0.6c-1.2,0-2.1-0.1-3-0.1
		c-1.1,0-1.8,0-2.7,0.1c-0.2-0.1-0.2-0.5,0-0.6l0.6-0.1c0.6-0.1,1-0.2,1.2-0.5c0.3-1,0.3-4.1,0.3-5.3V12c0-0.8,0-1.3-0.5-1.8
		c-0.3-0.3-1-0.5-1.6-0.6h-0.4c-0.1-0.1-0.1-0.5,0-0.6C169,9,170.4,9,170.8,9c0.4,0,0.9,0,1.2-0.1c0.5,1.3,3.6,4.8,4.4,5.7l2.5,2.8
		c1.8,1.9,3,3.5,4.3,4.7l0,0c0.1-0.1,0.1-0.5,0.1-1.1v-5.5c0-1.2,0-4.5-0.5-5.4c-0.1-0.2-0.5-0.4-1.6-0.5h-0.4
		c-0.2-0.1-0.1-0.5,0-0.6c1.2,0,2.1,0.1,3,0.1c1.1,0,1.8,0,2.7-0.1c0.2,0.1,0.2,0.5,0,0.6h-0.3c-0.9,0.1-1.3,0.3-1.4,0.5
		c-0.4,1-0.4,4.1-0.4,5.3L184.6,21.3L184.6,21.3z"/>
	<path d="M191.4,26.2c-2.2,0-3.6-0.6-4-1c-0.3-0.5-0.6-2.4-0.6-3.7c0.1-0.2,0.5-0.2,0.6-0.1c0.4,1.3,1.4,3.9,4.4,3.9
		c2.2,0,3.2-1.4,3.2-3c0-1.2-0.2-2.4-2.2-3.7l-2.5-1.6c-1.3-0.9-2.8-2.4-2.8-4.4c0-2.5,1.9-4.4,5.3-4.4c0.8,0,1.7,0.1,2.4,0.3
		c0.3,0.1,0.6,0.1,0.9,0.1c0.2,0.6,0.4,2.1,0.4,3.1c-0.1,0.1-0.5,0.2-0.6,0.1c-0.3-1.3-1.1-2.9-3.6-2.9c-2.6,0-3.1,1.7-3.1,2.9
		c0,1.5,1.3,2.6,2.2,3.2l2.1,1.3c1.6,1,3.2,2.5,3.2,5C196.9,24.2,194.7,26.2,191.4,26.2"/>
</g>
</svg>
