<?xml version="1.0" encoding="utf-8"?>
<!-- Generator: Adobe Illustrator 22.0.0, SVG Export Plug-In . SVG Version: 6.00 Build 0)  -->
<svg version="1.1" id="Layer_1" xmlns="http://www.w3.org/2000/svg" xmlns:xlink="http://www.w3.org/1999/xlink" x="0px" y="0px"
	 viewBox="0 0 249.1 90.8" style="enable-background:new 0 0 249.1 90.8;" xml:space="preserve">
<g>
	<path d="M29.8,11.3c0,0,0,68.3,0,68.2h190V11.3H29.8z M124.7,76.5c-51.6,0-93.4-13.9-93.4-31.2S73.1,14,124.8,14
		c51.7,0,93.4,14,93.4,31.3S176.3,76.5,124.7,76.5z"/>
	<path d="M55.8,32c0,0,0.8,0.5,0.8,1.7l-0.1,21.1c0,0.2,0.2,1.9-0.8,2.4h17.6c-0.9-0.5-0.9-2.2-0.9-2.4l-0.1-21.1
		c0-1.2,0.8-1.7,0.8-1.7S55.8,32,55.8,32z M80.6,32c0,0,0.7,0.5,0.7,1.7v21.1c0,0.2,0,1.9-0.9,2.4h17c-0.9-0.5-0.8-2.2-0.8-2.4v-7.9
		l5.3,8.6c0.5,1.2-0.1,1.7-0.1,1.7h20.1c0,0-0.3-0.2-0.7-0.5c-0.5-0.2-1-0.7-1.7-1.7l-8-12.8l6.3-8.9c0.7-0.9,1.6-1.5,1.7-1.5h-17.1
		c0,0,0.8,0.7,0,1.9L96.6,42v-8.4c0-1.2,0.7-1.7,0.7-1.7L80.6,32L80.6,32z M125.2,32c0,0,0.7,0.5,0.7,1.7l0.1,21.1
		c0,0.2-0.1,1.9-1,2.4h29.1v-8.9c0,0-1.1,1.2-2.7,1.2h-10.5v-2.2h8.2c0.5,0,1.9,0.2,2.2,0.7l0.1-7.7c-0.4,0.5-1.8,0.7-2.2,0.7H141
		v-2h10.6c1.5,0,2.5,1.2,2.5,1.2l0.1-8.2H125.2z M166.1,32c0,0,0.9,0.7,0.4,2.2l-8.1,21.1c-0.5,1.2-1.3,1.9-1.3,1.9h15
		c0,0-0.7-0.9-0.5-1.9l1.2-3.2h7.5l1.2,3.2c0.5,0.9-0.4,1.9-0.4,1.9h18.7c0,0-0.9-0.7-1.5-1.9l-8.5-21.1c-0.5-1.5,0.5-2.2,0.5-2.2
		S166.1,32,166.1,32z M176.5,41.6L176.5,41.6c0.1,0,0,0.2,0,0.2c0,0.3,0.1,0.8,0.2,1.2c0.2,0.2,1.9,4.5,1.9,4.5h-4.4
		c0,0,1.9-4.3,1.9-4.5c0.2-0.4,0.2-0.9,0.3-1.2C176.5,41.8,176.5,41.6,176.5,41.6L176.5,41.6z"/>
</g>
</svg>
