<?xml version="1.0" encoding="utf-8"?>
<!-- Generator: Adobe Illustrator 22.0.0, SVG Export Plug-In . SVG Version: 6.00 Build 0)  -->
<svg version="1.1" id="Layer_1" xmlns="http://www.w3.org/2000/svg" xmlns:xlink="http://www.w3.org/1999/xlink" x="0px" y="0px"
	 viewBox="0 0 200 33" style="enable-background:new 0 0 200 33;" xml:space="preserve">
<g>
	<path d="M73.9,25.6c-0.4,0.1-3.6,0.7-6.9,0.8c-5.9,0.2-11.1-2.2-11.1-6.5c-0.1-7.4,7.4-11.5,12.9-12.6c2.5-0.5,7.2-1.1,12,0.1
		L78.1,14c-0.8-1.8-2.8-1.8-3.7-1.9c-2,0-3.7,0.5-4.9,1.1c-2.8,1.3-5.2,5.4-1.3,7c2.2,0.9,5,0.2,7.9-0.3L73.9,25.6z"/>
	<path d="M189.4,7.1L184.6,20c0.1-1.3,0.3-6.4,0.5-9.4c0.1-1.2-0.2-2.2-0.8-2.8c-0.7-0.7-1.6-0.8-1.7-0.8h-10.6l-6.9,18.8h7.7
		l4.9-13.3l-0.6,13.3h12.9L197,7.1L189.4,7.1L189.4,7.1z"/>
	<polygon points="149.7,19.7 140.8,19.7 145.4,7.1 136.5,7.1 129.6,25.9 147.4,25.9 	"/>
	<polygon points="129.7,12 131.6,7.1 112.5,7.1 105.6,25.9 124.8,25.9 126.7,20.8 116.1,20.8 116.9,18.7 126.8,18.7 128.5,14.1 
		118.6,14.1 119.3,12 	"/>
	<polygon points="100.5,25.9 107.4,7.1 98.7,7.1 96.2,13.9 91.6,13.9 94.1,7.1 85.4,7.1 78.5,25.9 87.2,25.9 89.5,19.5 94.1,19.5 
		91.8,25.9 	"/>
	<polygon points="49.3,25.9 56.2,7.1 47.1,7.1 40.1,25.9 	"/>
	<path d="M35,25.9l6.9-18.8H29l-6.7,10.1c0,0,0.4-5.3,0.5-6.6c0.1-1,0-3.5-2.4-3.5H9.9L3,25.9h8.3l5-13.6l-1.1,13.6h7.3l9-13.4
		l-4.9,13.4L35,25.9L35,25.9z"/>
	<polygon points="160,25.9 166.9,7.1 157.8,7.1 150.9,25.9 	"/>
</g>
</svg>
