<?xml version="1.0" encoding="utf-8"?>
<!-- Generator: Adobe Illustrator 22.0.0, SVG Export Plug-In . SVG Version: 6.00 Build 0)  -->
<svg version="1.1" id="Layer_1" xmlns="http://www.w3.org/2000/svg" xmlns:xlink="http://www.w3.org/1999/xlink" x="0px" y="0px"
	 viewBox="0 0 200 52" style="enable-background:new 0 0 200 52;" xml:space="preserve">
<g>
	<path d="M73,28.3l-1.1,3.1h-0.1c-0.2-0.7-0.5-1.8-1.1-3l-5.9-14.8h-5.8v23.5h3.8V22.7c0-0.9,0-1.9,0-3.2c0-0.6-0.1-1.1-0.1-1.5h0.1
		c0.2,0.9,0.4,1.6,0.5,2l7.1,17.2h2.7l7-17.3c0.2-0.4,0.3-1.2,0.5-1.9h0.1c-0.1,1.7-0.2,3.3-0.2,4.2v14.9h4V13.6H79L73,28.3z"/>
	<rect x="88.4" y="20.2" width="4" height="16.9"/>
	<path d="M90.4,13.1c-0.7,0-1.2,0.2-1.7,0.7c-0.5,0.4-0.7,1-0.7,1.6c0,0.6,0.2,1.2,0.7,1.6c0.5,0.4,1,0.6,1.7,0.6
		c0.7,0,1.2-0.2,1.7-0.6c0.5-0.4,0.7-1,0.7-1.6c0-0.6-0.2-1.2-0.7-1.6C91.7,13.3,91.1,13.1,90.4,13.1z"/>
	<path d="M106.4,20.1L106.4,20.1c-0.7-0.2-1.5-0.2-2.2-0.2c-1.8,0-3.4,0.4-4.8,1.2c-1.4,0.8-2.5,1.9-3.2,3.3c-0.7,1.4-1.1,3-1.1,4.9
		c0,1.6,0.4,3,1.1,4.4c0.7,1.3,1.7,2.3,3,3c1.2,0.7,2.7,1.1,4.4,1.1c1.9,0,3.5-0.4,4.8-1.1l0,0v-3.7l-0.2,0.1
		c-0.6,0.4-1.2,0.8-1.9,1c-0.7,0.2-1.3,0.4-1.9,0.4c-1.6,0-2.8-0.5-3.7-1.5c-0.9-1-1.4-2.3-1.4-4c0-1.7,0.5-3.1,1.4-4.1
		c0.9-1,2.2-1.5,3.7-1.5c1.3,0,2.6,0.4,3.8,1.3l0.2,0.1v-3.9l0,0C107.7,20.5,107.2,20.2,106.4,20.1z"/>
	<path d="M119.4,19.9L119.4,19.9c-1,0-1.9,0.3-2.7,0.9c-0.7,0.5-1.1,1.3-1.5,2.3h0v-3h-4v16.9h4v-8.6c0-1.5,0.3-2.7,1-3.6
		c0.7-0.9,1.5-1.4,2.6-1.4c0.4,0,0.7,0.1,1.2,0.2c0.4,0.1,0.7,0.2,0.9,0.4l0.2,0.1v-4l-0.1,0C120.7,20,120.1,19.9,119.4,19.9z"/>
	<path d="M147.4,27.2L147.4,27.2c-1.2-0.5-2-0.9-2.4-1.2c-0.3-0.3-0.5-0.7-0.5-1.3c0-0.5,0.2-0.9,0.6-1.2c0.5-0.3,1-0.5,1.7-0.5
		c0.7,0,1.4,0.1,2,0.3c0.7,0.2,1.3,0.5,1.8,0.8l0.2,0.1v-3.7l-0.1,0c-0.5-0.2-1.1-0.4-1.8-0.5c-0.7-0.1-1.4-0.2-1.9-0.2
		c-1.9,0-3.4,0.5-4.7,1.5c-1.2,0.9-1.8,2.2-1.8,3.7c0,0.8,0.1,1.5,0.4,2.1c0.3,0.6,0.7,1.1,1.2,1.6c0.5,0.4,1.3,0.9,2.4,1.4
		c0.9,0.4,1.6,0.7,2,0.9c0.4,0.2,0.7,0.5,0.9,0.7c0.2,0.2,0.2,0.5,0.2,0.9c0,1.1-0.9,1.7-2.6,1.7c-0.7,0-1.4-0.1-2.2-0.4
		c-0.8-0.3-1.6-0.7-2.2-1.1l-0.2-0.1v3.9l0.1,0c0.6,0.3,1.3,0.5,2.1,0.7c0.9,0.2,1.6,0.3,2.3,0.3c2,0,3.7-0.5,4.9-1.5
		c1.2-1,1.9-2.2,1.9-3.8c0-1.1-0.3-2.1-1-2.9C150.1,28.6,149,27.8,147.4,27.2z"/>
	<path d="M191.9,23.5v-3.3h-4v-5l-0.1,0l-3.8,1.1l-0.1,0v3.8h-6v-2.1c0-1,0.2-1.7,0.7-2.2c0.4-0.5,1.1-0.7,1.9-0.7
		c0.5,0,1.1,0.1,1.8,0.4l0.2,0.1v-3.4l-0.1,0c-0.5-0.2-1.3-0.3-2.2-0.3c-1.2,0-2.2,0.3-3.2,0.7c-0.9,0.5-1.6,1.2-2.2,2.2
		c-0.5,0.9-0.8,1.9-0.8,3.1v2.3h-2.8v3.2h2.8v13.6h4V23.5h6l0,8.7c0,3.6,1.7,5.4,5,5.4c0.5,0,1.1-0.1,1.7-0.2c0.6-0.1,1-0.3,1.2-0.4
		l0,0v-3.3l-0.2,0.1c-0.2,0.2-0.5,0.3-0.8,0.4c-0.3,0.1-0.6,0.1-0.8,0.1c-0.8,0-1.3-0.2-1.7-0.6c-0.4-0.4-0.5-1.1-0.5-2.2v-8H191.9z
		"/>
	<path id="o" d="M130.2,19.9c-2.8,0-5,0.8-6.5,2.4c-1.6,1.6-2.3,3.8-2.3,6.6c0,2.6,0.8,4.7,2.3,6.3c1.5,1.5,3.6,2.3,6.2,2.3
		c2.7,0,4.9-0.8,6.4-2.5c1.6-1.6,2.3-3.8,2.3-6.5c0-2.7-0.7-4.8-2.2-6.4C134.9,20.6,132.8,19.9,130.2,19.9 M133.4,32.8
		c-0.7,0.9-1.9,1.4-3.3,1.4s-2.6-0.5-3.4-1.5c-0.8-0.9-1.2-2.3-1.2-4c0-1.8,0.4-3.2,1.2-4.1c0.8-1,1.9-1.5,3.4-1.5
		c1.4,0,2.5,0.5,3.3,1.4c0.8,0.9,1.2,2.3,1.2,4.1C134.5,30.4,134.1,31.9,133.4,32.8"/>
	<path id="o_1_" d="M162.4,19.9c-2.8,0-5,0.8-6.5,2.4c-1.6,1.6-2.3,3.8-2.3,6.6c0,2.6,0.8,4.7,2.3,6.3c1.5,1.5,3.6,2.3,6.2,2.3
		c2.7,0,4.9-0.8,6.4-2.5c1.6-1.6,2.3-3.8,2.3-6.5c0-2.7-0.7-4.8-2.2-6.4C167.1,20.6,165,19.9,162.4,19.9 M165.6,32.8
		c-0.7,0.9-1.9,1.4-3.3,1.4s-2.6-0.5-3.4-1.5c-0.8-0.9-1.2-2.3-1.2-4c0-1.8,0.4-3.2,1.2-4.1c0.8-1,1.9-1.5,3.4-1.5
		c1.4,0,2.5,0.5,3.3,1.4c0.8,0.9,1.2,2.3,1.2,4.1C166.7,30.4,166.3,31.9,165.6,32.8"/>
</g>
<path d="M8.1,5.7h18.7v18.7H8.1V5.7z"/>
<path d="M28.7,5.7h18.7v18.7H28.7V5.7z"/>
<path d="M8.1,26.3h18.7V45H8.1V26.3z"/>
<path d="M28.7,26.3h18.7V45H28.7V26.3z"/>
</svg>
