<?xml version="1.0" encoding="utf-8"?>
<!-- Generator: Adobe Illustrator 22.0.0, SVG Export Plug-In . SVG Version: 6.00 Build 0)  -->
<svg version="1.1" id="Layer_1" xmlns="http://www.w3.org/2000/svg" xmlns:xlink="http://www.w3.org/1999/xlink" x="0px" y="0px"
	 viewBox="0 0 100 19" style="enable-background:new 0 0 100 19;" xml:space="preserve">
<title>nespresso_logo</title>
<desc>Created with Sketch.</desc>
<g id="Page-1">
	<g id="nespresso_logo">
		<path id="Shape" d="M90.1,3C88.6,3,84,3.5,84,9.5c0,6.3,5,6.6,6,6.6c0.6,0,2.9-0.1,4.3-1.7c1.1-1.2,1.6-2.8,1.6-4.9
			C96.1,3.4,91.6,3,90.1,3L90.1,3z M92,13.5c-0.4,0.3-0.9,0.7-1.7,0.7h-0.1c-0.9,0-1.4-0.4-1.7-0.7c-0.9-0.8-1.2-2.2-1.2-4.3
			c0-3.9,1.9-4.6,3-4.6h0.1c1.1,0,3,0.7,3,4.6C93.2,11.3,92.8,12.7,92,13.5z M18.4,18c-1.1-0.4-2.7-1.7-3.6-2.9
			c-1.1-1.4-4-5.4-4-5.4c-0.5-0.5-0.9-1.2-1.4-1.8C8.2,6,6.8,4.1,5.4,2.9V16h1.7V9.2l1.5,2c0.7,1.1,1.6,2.2,2.2,3
			c0.5,0.5,1.6,2,2,2.2c1.6,1.6,4.1,2.5,6.6,2.5c1.1,0,2.1-0.1,3.1-0.5v-0.1c-0.4,0.1-0.9,0.1-1.2,0.1C20.4,18.7,19.4,18.4,18.4,18
			L18.4,18z M7.7,3.9c1.1,1.4,4.1,5.4,4.1,5.4c0.4,0.5,0.9,1.2,1.2,1.8c1.2,1.8,2.6,3.8,4.1,5V3h-1.7v6.8l-1.5-2
			c-0.7-1.2-1.5-2.2-2.2-3c-0.4-0.7-1.7-2-2.1-2.4C8.1,0.9,5.5,0,3,0C2,0,1,0.1,0,0.5v0.1c0.4-0.1,0.9-0.1,1.2-0.1
			c1,0,1.9,0.3,2.9,0.5C5.2,1.4,6.8,2.8,7.7,3.9L7.7,3.9z M73.3,9.7c-1.4-1.3-3-1.6-4.1-2.4c-0.9-0.7-0.7-1.6-0.4-2.1
			c1-1.3,3.1-0.8,3.6-0.7c0.6,0.1,0.9,0.3,1.5,0.7V3.8C71.5,3,67.6,2.4,66.1,5C65.5,6,65.4,7.9,67,9.1c1.6,1.3,4.5,2,4.7,3.2
			c0.2,0.7,0,1.2-0.4,1.6c-1.5,1.4-3.8,0.5-5.3-0.1v1.6c1.6,0.8,3.7,0.9,5.5,0.5c1.2-0.3,2.6-1.4,2.9-2.9S74.2,10.5,73.3,9.7
			L73.3,9.7z M82.3,9.7c-1.4-1.3-3-1.6-4.1-2.4c-0.9-0.7-0.7-1.6-0.4-2.1c1-1.2,3-0.7,3.5-0.5c0.6,0.1,0.9,0.3,1.5,0.7V3.8
			C80.3,3,76.4,2.4,75,5c-0.5,1.1-0.6,2.9,1,4.1c1.6,1.3,4.5,2,4.7,3.2c0.2,0.7,0,1.2-0.4,1.6c-1.5,1.4-3.8,0.5-5.3-0.1v1.6
			c1.6,0.8,3.6,0.9,5.5,0.5c1.2-0.3,2.6-1.4,2.9-2.9S83.1,10.5,82.3,9.7L82.3,9.7z M57.2,15.8H65v-1.6h-5.1v-4.1H64V8.7h-4.1V4.9H65
			V3.4h-7.8V15.8z M34.9,9.7c-1.4-1.3-3-1.6-4.1-2.4c-0.9-0.7-0.7-1.6-0.4-2.1c1-1.2,3-0.7,3.5-0.5c0.6,0.1,0.9,0.3,1.5,0.7V3.8
			C32.9,3,29.1,2.4,27.6,5c-0.5,1.1-0.7,2.9,1,4.1c1.6,1.3,4.5,2,4.7,3.2c0.2,0.7,0,1.2-0.4,1.6c-1.5,1.4-3.8,0.5-5.3-0.1v1.6
			c1.6,0.8,3.7,0.9,5.5,0.5c1.2-0.3,2.6-1.4,2.9-2.9C36,11.4,35.8,10.5,34.9,9.7L34.9,9.7z M18.8,15.8h7.8v-1.6h-5.1v-4.1h4.1V8.7
			h-4.1V4.9h5.1V3.4h-7.8V15.8z M42.2,3.3h-5.1v12.6h2.6v-4.6c0,0,4.1,0.3,5.3-1.4c0.9-1.1,1-2.9,0.6-4.2
			C45.1,3.9,43.7,3.3,42.2,3.3L42.2,3.3z M42.7,8.9c-0.7,0.8-2,0.8-3,0.7V4.9c0,0,2.2-0.5,3.1,0.8C43.3,6.3,43.3,8,42.7,8.9
			L42.7,8.9z M54.6,9.7c0.9-1.1,1-2.8,0.6-4.2c-0.5-1.4-1.9-2.2-3.3-2.2h-5.1v12.5h2.6v-4.6h1.2l2.7,4.6h3l-3-5.1
			C53.7,10.4,54.4,10.1,54.6,9.7L54.6,9.7z M52.5,8.9c-0.7,0.8-2,0.7-3,0.7V5c0,0,2.1-0.5,3.1,0.8C53,6.4,53.1,8,52.5,8.9L52.5,8.9z
			"/>
	</g>
</g>
</svg>
