<?xml version="1.0" encoding="utf-8"?>
<!-- Generator: Adobe Illustrator 22.0.0, SVG Export Plug-In . SVG Version: 6.00 Build 0)  -->
<svg version="1.1" id="Layer_1" xmlns:svg="http://www.w3.org/2000/svg"
	 xmlns="http://www.w3.org/2000/svg" xmlns:xlink="http://www.w3.org/1999/xlink" x="0px" y="0px" viewBox="0 0 200 72"
	 style="enable-background:new 0 0 200 72;" xml:space="preserve">
<path d="M65,51.7c-2.7-0.1-4.9-0.8-6.6-2.2c-0.3-0.3-1.1-1.1-1.4-1.4c-0.6-0.9-1.1-1.7-1.4-2.7c-1-2.9-0.5-6.7,1.4-10.9
	c1.6-3.6,4.1-7.1,8.5-12.1c0.6-0.7,2.6-2.8,2.6-2.8S68,19.8,67.9,20c-1.1,1.9-2.1,4.1-2.7,6.1c-0.9,3.1-0.7,5.8,0.3,7.9
	c0.7,1.4,2,2.7,3.4,3.4c2.4,1.2,6,1.3,10.4,0.3c0.3-0.1,15.2-4,33.2-8.8c18-4.8,32.6-8.7,32.7-8.7c0,0-41.7,17.9-63.3,27.1
	c-3.4,1.5-4.4,1.8-6,2.4C71.7,51.1,68,51.8,65,51.7z"/>
</svg>
