<?xml version="1.0" encoding="utf-8"?>
<!-- Generator: Adobe Illustrator 22.0.0, SVG Export Plug-In . SVG Version: 6.00 Build 0)  -->
<svg version="1.1" id="Layer_1" xmlns="http://www.w3.org/2000/svg" xmlns:xlink="http://www.w3.org/1999/xlink" x="0px" y="0px"
	 viewBox="0 0 295.4 48.3" style="enable-background:new 0 0 295.4 48.3;" xml:space="preserve">
<title>novartis_logo_pos_rgb</title>
<path id="_Path_" d="M29.5,21.6l-0.1,0.3c2,0.9,6.5,4.4,6.5,11.4c0,6.6-5.6,13.3-14.3,13.3c-10.9,0-14.7-6.4-14.7-12.2
	c0-7.5,5.2-12.5,5.2-19.3c-0.1-5-3.6-9.3-8.4-10.3L3.5,5c1.7,1.7,2.7,4,2.7,6.4C6.2,18.8,0,24.1,0,32.5c0,7.8,5.5,15.8,21.3,15.8
	c14.1,0,21.5-6.9,21.5-14.2C42.8,27.8,38.3,22.4,29.5,21.6z"/>
<path id="_Compound_Path_" d="M91.4,47L72.7,22.9v21.8l3.8,0.9v1h-8.7v-1l3.1-0.9V21c-0.8-0.7-1.7-1.2-2.7-1.5
	c-0.4-0.1-0.9-0.2-0.9-0.2v-1h7.4l16,20.8V20.2L87,19.3v-1h8.7v1l-3.1,0.9v21.6c0,2,0.1,4.9,0.2,5.3L91.4,47z M130.6,31.7
	c0,10-7,15.8-14.6,15.8s-14.7-5.9-14.7-15s7-15.1,14.6-15.1c7.9-0.3,14.5,5.9,14.7,13.8C130.6,31.3,130.6,31.5,130.6,31.7
	L130.6,31.7z M125.7,33.2c0-7.3-4.4-14.5-10.4-14.5c-6.4,0-9.2,6.2-9.2,12.7s3.6,14.7,10.5,14.7C123,46.2,125.7,39.7,125.7,33.2z
	 M136.7,20.2l-3-0.9v-1h11.5v1l-3.6,0.9l7.9,21.6l0,0l7.9-21.6l-3.6-0.9v-1h8.5v1l-3,0.9l-9.9,26.9h-2.5L136.7,20.2z M204.6,32.1
	h-1.8V19.7c6,0,9.6,1.4,9.6,6.3C212.3,29.7,209.2,32.1,204.6,32.1z M256,45.6l4-0.9V20.2l-4-0.9v-1h12.5v1l-4,0.9v24.5l4,0.9v1H256
	V45.6z M276.1,38.8h0.8l2.6,6.1c1.6,0.8,3.3,1.2,5.1,1.3c3.4,0,6.6-2,6.6-5.6c0-2.7-1.8-4.3-4.6-5.8l-2.8-1.5
	c-3.4-1.8-6.7-4.2-6.7-8.2c0-4.3,3-7.7,9.4-7.7c2.3,0,4.5,0.4,6.6,1.1l0.7,6.6h-0.9l-2.5-5.3c-1.3-0.7-2.7-1.1-4.2-1.1
	c-3.2,0-5.5,2-5.5,4.8c0,2.5,1.7,4.1,4.5,5.6l3.3,1.7c4.6,2.4,6.7,4.6,6.7,8.6c0,5-4.7,8.1-10.5,8.1c-2.7,0-5.5-0.4-8.1-1.2
	L276.1,38.8z M160.5,45.6l3.2-0.9l9.9-26.4l3.3-0.8l10.2,27.3l3.2,0.9v1h-12.1v-1l4.1-0.9l-2.9-7.8h-10.9l-2.9,7.8l4.1,0.9v1h-9.3
	L160.5,45.6z M169.3,34.7h9.4L174,22.1l0,0L169.3,34.7z M210.3,32.7c1-0.2,6.6-1.7,6.6-7c0-4.3-3.3-7.6-11.3-7.6
	c-5,0-10,0.1-10.6,0.1v1l3.3,0.9v24.5l-3.3,0.9v1h11.6v-1l-3.8-0.9V33.6h3.3l8.4,13h7.5v-1l-3.8-1L210.3,32.7z M234.9,19.7v24.9
	l-4,0.9v1h12.5v-1l-4-0.9V19.7h6.7l2.2,4.8h0.9l-0.6-6.2h-22.8l-0.6,6.2h0.9l2.2-4.7L234.9,19.7z M21.5,37.7l4-37.8h-8.3l4,37.8
	H21.5z"/>
</svg>
