<?xml version="1.0" encoding="utf-8"?>
<!-- Generator: Adobe Illustrator 22.0.0, SVG Export Plug-In . SVG Version: 6.00 Build 0)  -->
<svg version="1.1" id="Layer_1" xmlns="http://www.w3.org/2000/svg" xmlns:xlink="http://www.w3.org/1999/xlink" x="0px" y="0px"
	 viewBox="0 0 379 186" style="enable-background:new 0 0 379 186;" xml:space="preserve">
<style type="text/css">
	.st0{fill:#FED9BF;}
</style>
<g id="surface1">
	<path d="M243.9,148c0.7-0.9,1.9-1.3,3.1-1.5c1.5-0.1,3.1,0.3,4.2,1.5c0.9,1,1.2,2.4,1.3,3.7c-3.3,0-6.7,0-10,0
		C242.6,150.4,243,149.1,243.9,148z"/>
	<path d="M219.4,146.8c1.5-0.3,3.3,0.1,4.3,1.3c1.3,1.3,1.8,3.1,1.9,4.9c0,1.3,0,2.7-0.1,3.9c-0.3,1.3-0.7,2.8-1.6,3.7
		c-0.9,0.9-2.2,1.3-3.4,1.3s-2.4-0.3-3.3-1.2c-1-1.2-1.5-2.7-1.6-4.3c-0.1-1.5-0.1-3.1,0-4.6c0.1-1.3,0.6-2.7,1.5-3.7
		C217.4,147.6,218.3,147,219.4,146.8z"/>
	<path d="M120.6,147.7c1.6-0.3,3.4,0,4.6,1.2c1.2,1,1.8,2.5,1.9,4c0.3,1.6,0.3,3.4,0,5.1c-0.3,1.5-0.9,3-2.2,3.9
		c-1.3,1-3.1,1.2-4.8,0.9c-1.3-0.3-2.5-1.2-3.1-2.4c-1-1.6-1.2-3.7-1.2-5.7c0-1.8,0.4-3.6,1.3-4.9
		C118,148.6,119.2,147.7,120.6,147.7z"/>
	<path d="M163.9,156.3c1.9-0.7,3.9-1.2,5.8-1.3c0,1.9,0,3.9,0,5.8c-1.6,1.5-3.7,2.7-6.1,2.7c-0.7,0-1.5-0.3-2.1-0.9
		c-1-1.2-1.2-2.8-0.4-4.2C161.9,157.3,163,156.7,163.9,156.3z"/>
	<path class="st0" d="M279.3,2.8L279.3,2.8l0.1,180.3H99.6V183c60,0,119.8,0,179.7,0C279.3,122.9,279.2,62.9,279.3,2.8z"/>
	<path d="M99.4,2.8v180.1c59.9,0,119.7,0,179.7,0c0-60.1,0-120,0-180.1H99.4z M133.8,158c-0.3,2.2-1.2,4.5-2.7,6.3
		c-1.6,1.9-4,3.3-6.4,3.9c-2.7,0.6-5.5,0.4-8.1-0.6c-2.1-0.9-4-2.4-5.2-4.3c-1.2-1.9-1.8-4-1.9-6.2c-0.1-0.7-0.1-1.4-0.1-2.2
		c-0.1-2.9,0.6-6,2.4-8.4c2.1-3,5.7-4.5,9.1-4.6c2-0.1,4.1,0.2,6.1,1c0.7,0.3,1.4,0.6,2,0.9c2.1,1.5,3.6,3.6,4.3,6c0,0,0,0.1,0,0.1
		c0,0.1,0.1,0.1,0.1,0.2C134.1,152.6,134.3,155.3,133.8,158z M152.7,148.3c0,0-0.1,0-0.1,0c0,0.1,0,0.2,0,0.3
		c-1.9,0-3.9,0.2-5.5,0.9c-0.7,0.3-1.4,1-1.7,1.6c0,5.5,0,11,0,16.5c0,0-0.1,0-0.1,0c0,0.1,0,0.2,0,0.3c-2.2,0-4.5,0-6.7,0
		c0-8.4,0-16.8,0-25.2c0,0,0.1,0,0.1,0c0-0.1,0-0.2,0-0.3c2.1,0,4.2,0,6.3,0c-0.1,1.1-0.1,2.2-0.1,3.1c1-1.3,2.3-2.2,3.8-2.7
		c1.2-0.5,2.6-0.7,4-0.6C152.7,144.3,152.7,146.4,152.7,148.3z M176.6,150.3c0,5.7-0.1,11.6,0,17.4c0,0-0.1,0-0.1,0c0,0,0,0.1,0,0.1
		c-1.9,0-3.9,0-5.8,0c-0.1-0.7-0.4-1.5-0.6-2.2c-1.6,1.2-3.6,1.9-5.7,2.2c-0.4,0.1-0.9,0.1-1.3,0.2c-0.7,0.1-1.3,0.1-2,0.1
		c-1,0-1.9-0.2-2.8-0.6c-1.6-0.7-3-2.2-3.4-4c-0.2-0.8-0.3-1.7-0.3-2.5c0-1.1,0.2-2.3,0.7-3.3c0.1-0.2,0.2-0.4,0.3-0.5
		c0.1-0.2,0.3-0.4,0.5-0.6c1-1.4,2.6-2.4,4.2-3.1c3.1-1.5,6.5-2,9.9-2.4c0-1,0.1-2.1-0.6-2.9c-1-1.2-2.8-1.3-4.3-1.2
		c-1,0-2,0.3-2.9,0.8c-0.8,0.5-1.6,1.1-2.2,1.9c0,0,0,0,0,0c0,0-0.1,0.1-0.1,0.1c-1.5-0.9-3-1.6-4.5-2.5c1.5-2.1,3.5-3.6,5.8-4.3
		c2.6-0.8,5.3-0.9,8-0.5c2.3,0.4,4.7,1.3,6,3.1C176.5,146.9,176.7,148.7,176.6,150.3z M204.1,167.4
		C204.1,167.4,204,167.4,204.1,167.4C204,167.4,204,167.5,204.1,167.4c-2.3,0.1-4.4,0.1-6.7,0.1c0-5.5,0-11.2,0-16.8
		c0-1-0.1-2.4-0.9-3.1c-0.7-0.7-1.9-0.9-3-0.7c-2.1,0.3-3.8,1.4-5.3,2.6c0,6,0,12,0,18c0,0-0.1,0-0.1,0c0,0,0,0.1,0,0.1
		c-2.2,0-4.3,0-6.6,0c0-8.1,0-16.3,0-24.4c0,0,0.1,0,0.1,0c0,0,0-0.1,0-0.1c1.9-0.3,3.7-0.4,5.5-0.7c0.2,1.1,0.5,2,0.6,3
		c2-1.3,3.9-2.7,6.3-3.1c2.1-0.4,4.4-0.4,6.4,0.5c1.5,0.6,2.7,1.9,3.1,3.4c0.5,1,0.6,2.2,0.6,3.4
		C204.1,155.6,204.1,161.4,204.1,167.4z M232.1,167.6c-0.2,2.6-0.8,5.1-2.4,6.9c-2,2.1-4.8,2.8-7.5,3.1c-2.9,0.1-5.9,0-8.5-1.1
		c-0.2-0.1-0.3-0.1-0.5-0.2c-0.1,0-0.2-0.1-0.3-0.1c0,0,0,0,0,0c-0.1-0.1-0.2-0.1-0.4-0.2c-1.8-1-3.3-2.7-3.6-4.8
		c2.2-0.3,4.3-0.7,6.6-1c0,0.1,0,0.2,0.1,0.2c0.1,0,0.2,0,0.3,0c0.1,0.6,0.4,1.2,1,1.6c0,0,0,0,0.1,0c1.1,0.5,2.2,0.5,3.4,0.5
		c1.3,0,2.7-0.3,3.4-1.3c0.9-1,1.2-2.5,1.2-4c0-0.7,0-1.5,0-2.2c-0.5,0.8-1.2,1.6-2.1,2c-1.5,0.8-3.4,0.8-5.2,0.7
		c-1.6-0.2-3.1-0.7-4.4-1.6c-0.9-0.5-1.7-1.2-2.4-2c-1.9-2.4-2.5-5.7-2.7-8.7c0.4-3.1,1-6.7,3.1-9.4c1.5-2.1,4-3.6,6.6-3.9
		c1.6-0.1,3.4,0,5.1,0.7c0.4,0.1,0.7,0.3,1.1,0.5c0.7,0.4,1.3,0.9,1.8,1.6c0.1-0.8,0.3-1.6,0.3-2.3c1.8,0,3.7,0,5.5,0
		c0,0.1,0,0.1,0,0.2c0.1,0,0.3,0,0.4,0C232.1,151,232.1,159.4,232.1,167.6z M259,155.9C259,155.9,258.9,155.9,259,155.9
		c-0.1,0.1-0.1,0.1-0.1,0.2c-5.5,0-11,0-16.5,0c0,1.5,0.3,3.3,1.2,4.7c0.7,1.2,2.1,2,3.4,2.1c1.4,0.3,2.9,0.2,4.2-0.4
		c1.1-0.6,2-1.5,2.7-2.5c1.5,0.9,3.2,1.8,4.8,2.7c0,0.1-0.1,0.1-0.1,0.2c0,0,0,0,0,0c-1.5,2.7-4.2,4.3-7.2,5.1c-3,0.6-6.1,0.6-9-0.4
		c-2.2-0.9-4-2.7-5.1-4.8c-1.3-2.7-1.6-6-1.5-9c0.3-3.1,1.1-5.9,2.9-8c1-1.3,2.4-2.3,4-2.9c0.9-0.4,2-0.7,3-0.9c2.8-0.3,6,0,8.5,1.6
		c2.1,1.2,3.5,3.3,4.2,5.7C259,151.4,259.1,153.7,259,155.9z M261.8,134.2C261.8,134.2,261.7,134.2,261.8,134.2c-1,0-1.6,0-2.5,0
		c0,2.4,0,4.8,0,7.2c0,0-0.1,0-0.1,0c-0.6,0-1,0-1.4,0c0,0-0.1,0-0.1,0c0-2.4,0-4.8,0-7.2c-0.9,0-1.5,0-2.4,0c0,0-0.1,0-0.1,0
		c0-0.1,0-0.1,0-0.2c-0.2-0.3-0.2-0.6,0-1c2.1,0,4.3,0,6.5,0c0,0,0.1,0,0.1,0C261.8,133.4,261.8,133.7,261.8,134.2z M272.4,141
		c0,0-0.1,0-0.1,0c0,0.1,0,0.1,0,0.2c-0.4,0-0.9,0-1.3,0c0-2.2,0-4.5,0-6.8c-0.9,2.3-1.7,4.5-2.6,6.6c0,0,0,0,0,0
		c0,0.1-0.1,0.1-0.1,0.2c-0.3,0-0.6,0-0.9,0c-0.9-2.1-1.7-4.3-2.6-6.5c0,2.2,0,4.4,0,6.5c0,0-0.1,0-0.1,0c0,0.1,0,0.1,0,0.2
		c-0.4,0-0.9,0-1.5,0c0.1-2.8,0.1-5.5,0.1-8.4c0.7,0,1.5,0,2.2-0.2c0.8,1.9,1.7,4,2.4,6.1c0.7-2,1.5-4,2.3-5.9c0,0,0,0,0,0
		c0-0.1,0-0.1,0.1-0.2c0.6,0,1.4,0,2.1,0C272.4,135.5,272.4,138.3,272.4,141z"/>
</g>
</svg>
