<?xml version="1.0" encoding="utf-8"?>
<!-- Generator: Adobe Illustrator 22.0.0, SVG Export Plug-In . SVG Version: 6.00 Build 0)  -->
<svg version="1.1" id="svg5133" xmlns:svg="http://www.w3.org/2000/svg"
	 xmlns="http://www.w3.org/2000/svg" xmlns:xlink="http://www.w3.org/1999/xlink" x="0px" y="0px" viewBox="0 0 1024 514"
	 style="enable-background:new 0 0 1024 514;" xml:space="preserve">
<path id="path4866" d="M355.8,466.2c-19.5,0-32.1-15.1-32.1-37.4c0-22.5,12.6-37.4,32.1-37.4c19.7,0,32.3,15.1,32.3,37.4
	C388,451.2,375.5,466.2,355.8,466.2 M355.8,384.7c-24.6,0-40.5,17.9-40.5,44.1c0,26.1,15.9,44.1,40.3,44.1
	c24.5,0,40.6-18.1,40.6-44.1C396.2,402.5,380.1,384.7,355.8,384.7 M291.6,361.3l24.6-1.9v-5.2H258v5.2l24.8,1.7v45.1h-65.1v-45.1
	l24.8-1.7v-5.2h-58.2v5.2l24.4,1.9v101.4l-24.4,1.7v5.2h58.2v-5.2l-24.8-1.7v-49.7h65.1v49.8l-24.8,1.7v5.2h58.2v-5.2l-24.6-1.7
	V361.3L291.6,361.3z M217.4,48.7h37.1c16.4,0,26.4,10.5,26.4,26.2c0,15.9-8.6,27.9-25,27.9h-38.4C217.4,102.8,217.4,48.7,217.4,48.7
	z M243.3,152l-25.9-1.7v-40.9H257c20.8,0,32.8-14.7,32.8-34.4c0-19.4-12.7-33.1-33.6-33.1h-72v5.2l24.2,1.9v101.4l-24.2,1.7v5.2
	h59.2L243.3,152L243.3,152z M396.7,308.5v4.8H444v-4.6l-19.1-1.7v-51.1c6.9-11.5,18.9-20,32.1-20s20.5,8.6,20.5,21.9V307l-19.3,1.7
	v4.6h45.6v-4.8l-17.9-1.7v-50c0-15.2-7.4-28.2-27.3-28.2c-14.2,0-26.6,8-33.9,18.9v-17.9l-4.7-1.3c-6.9,7.5-15.9,10.9-26.7,10.9v3.5
	c8,1.5,16.6,1.3,23.3-2v66.2L396.7,308.5L396.7,308.5z M217.4,204.9h38.9c16.6,0,27.1,10,27.1,25.4s-8.8,26.4-26.7,26.4h-39.3V204.9
	L217.4,204.9z M243.3,308.2l-25.9-1.7v-42.9h34.4l24.4,49.8h30.6v-5.2l-24.9-2.5l-20.8-42.1c19.5-1,31.1-15.1,31.1-33.2
	c0-18.7-13-32.1-33.1-32.1h-75v5.2l24.4,1.9v101.2l-24.4,1.7v5.2h59.2V308.2L243.3,308.2z M821.9,150.7v-49.9
	c0-15.2-7.3-28.4-27.3-28.4c-14.1,0-26.5,8-33.8,19.1V73.4l-4.6-1.3c-6.9,7.5-15.9,11-26.7,10.9v3.7c8,1.5,16.6,1.3,23.3-2v66.1
	l-19.9,1.7v4.8h47.3v-4.7l-19.1-1.7V99.8C768,88.3,780,79.6,793,79.6c13.2,0,20.6,8.6,20.6,22.1V151l-19.3,1.7v4.7h45.6v-4.8
	L821.9,150.7z M547.3,424.3c-10.9-2.7-24.6-6.3-24.6-18.3c0-7.8,5.7-14.9,20-14.9c12.8,0,19.5,5.7,25.6,16.2l5.3,9.4l4.2-0.8
	l-5.3-31.5H568l-0.2,13.9c-4.7-7.5-13-13.5-26.2-13.5c-16.7,0-26.7,9.4-26.7,21.6c0,16.8,19.2,22,30.7,25c15.7,4,26.4,7.8,26.4,19.2
	c0,10.1-8.6,16-21.4,16c-13.4,0-21.7-6.7-29.9-20l-5.2-8.6l-4.4,0.8l5.5,32.6h4.7l-0.5-15.7c6.3,10.5,16,17.2,30.7,17.2
	c17,0,28.2-9,28.2-23.1C579.8,433.6,565.6,428.9,547.3,424.3 M821.6,256.2c0-15.1-6.3-27.5-24.1-27.5c-13.5,0-24.1,7.2-31.3,18.2
	c-2.3-10.2-9-18.2-22.9-18.2c-12.2,0-23.6,7.8-30.6,18.4v-17.4l-4.6-1.3c-7,7.5-16,10.9-26.7,10.9v3.5c7.8,1.5,16.6,1.2,23.3-2.1
	v66.3l-19.9,1.7v4.8h43.6v-4.6l-15.4-1.7V255c6.3-11,16.8-19.2,28.4-19.2c13.4,0,17.7,9,17.7,22.7V307l-16.4,1.7v4.6h41.3v-4.6
	l-16.6-1.7v-49.5c0-1,0-2.1-0.2-3.4c7-11.9,16.8-18.4,28.1-18.4c13.5,0,17.9,9.2,17.9,22.5V307l-15.2,1.7v4.6h41.8v-4.6l-18.2-1.9
	L821.6,256.2L821.6,256.2z M677.7,152.4v4.8h47.6v-4.8l-19.3-1.7V73.5l-4.7-1.5c-7.1,7.5-16.4,11-26.9,10.9v3.7
	c7.8,1.5,16.5,1.2,23.3-2.1v66.3L677.7,152.4L677.7,152.4z M600.9,420.8c2.5-17.9,13.9-29.4,30.2-29.4c13.5,0,27.3,8.9,27.7,29.4
	H600.9L600.9,420.8z M631.3,384.7c-23.5,0-39.1,18-39.1,44.1c0,26.1,15.7,44.1,40.6,44.1c18.3,0,28.8-8.6,32.9-21.4l-5.2-1.9
	c-4.7,10.8-13.1,16.6-26.7,16.6c-21,0-33.4-14.5-33.4-37.2v-1.7h66.4c0.2-1.2,0.2-3.8,0.2-5.3C666.9,403.6,655.4,384.7,631.3,384.7
	 M637.3,309.9c-19.5,0-32.1-15.1-32.1-37.4c0-22.5,12.6-37.2,32.1-37.2c19.8,0,32.3,14.9,32.3,37.2
	C669.5,295,657.1,309.9,637.3,309.9 M637.3,228.6c-24.5,0-40.5,17.7-40.5,43.9c0,26,15.9,44.1,40.3,44.1c24.5,0,40.6-18.1,40.6-44.1
	C677.7,246.3,661.7,228.6,637.3,228.6 M487.6,385.7l-4.7-1.3c-7.2,7.5-16.4,11-26.9,10.9v3.7c7.8,1.5,16.4,1.3,23.1-2v49.6
	c-7,11-19.1,19.4-32.1,19.4s-20.4-8.7-20.4-21.9v-58.3l-4.5-1.3c-7,7.5-14.2,11-24.6,10.9v3.7c7,1.5,14.7,1.3,20.8-1.5v47.1
	c0,15.1,7.2,28.4,27.4,28.4c14.2,0,26.5-7.9,33.6-18.5l0.2,16.9l0.5,0.4l26.1-2.5v-4.5h-18.4V385.7L487.6,385.7z M581.7,85v47.1
	c0,15.1,7.2,28.4,27.4,28.4c14.2,0,26.5-7.9,33.6-18.5l0.2,16.8l0.5,0.4l26.1-2.5v-4.5H651V73.4l-4.7-1.3
	c-7.2,7.5-16.4,11-26.9,10.9v3.7c7.8,1.5,16.4,1.3,23.1-2v49.6c-7,11-19.1,19.4-32.1,19.4c-13,0-20.4-8.7-20.4-21.9V73.4l-4.5-1.3
	c-7,7.5-14.2,11-24.5,10.9v3.7C568,88.1,575.6,87.9,581.7,85 M394.9,84.6v66.1l-19.9,1.7v4.8h47.3v-4.7l-19.1-1.7v-51
	c6.9-11.5,18.9-20.2,32.1-20.2s20.6,8.6,20.6,22.1V151l-19.4,1.7v4.7h45.6v-4.8l-17.9-1.7V101c0-15.2-7.3-28.4-27.3-28.4
	c-14.2,0-26.6,8-33.9,19.1V73.4l-4.7-1.3c-6.9,7.5-15.9,11-26.7,10.9v3.7C379.7,88.1,388.1,87.9,394.9,84.6 M570.6,291.2
	c-4.2,11.9-14.5,18.7-27.4,18.7c-18.9,0-30.1-14.3-30.1-37.1c0-22.2,12.6-37.6,31.7-37.6c11.2,0,20.9,5.7,25.8,15.1L570.6,291.2
	L570.6,291.2z M543.9,228.6c-23.3,0-39.1,18.2-39.1,44.6c0,25.9,13.8,43.5,37.1,43.5c12.7,0,23.4-6,28.9-16l0.2,14.3l0.5,0.4
	l26.4-2.5v-4.5h-18.9V188l-4.5-1.3c-7.3,9.4-16.2,14.3-26.6,14.2v3.7c7.9,1.8,17.2,0,22.7-3.8v40.7
	C564.6,233.3,555.2,228.6,543.9,228.6 M510.3,155.6l16.7,1.5c19.5,1.8,25.6,7.4,25.6,14.7c0,10.2-10.3,18-31.3,18
	c-18.7,0-29.4-7.5-29.4-17.6C491.9,164.8,498.3,157.6,510.3,155.6 M496.6,103.7c0-13.5,10.2-24.8,25.4-24.8
	c14.7,0,24.8,11.2,24.8,25c0,13-9.5,24.4-25.2,24.4C507.3,128.3,496.6,117.2,496.6,103.7 M484.3,172.8c0,12.8,12.2,23.5,36.9,23.5
	c25.9,0,39.5-10.9,39.5-25.2c0-15.9-18.5-20-36.8-21.6c-13.5-1.2-26.1-1.7-26.1-8.4c0-3.3,3.4-6.5,18.3-6.5h5.5
	c20,0,33-13.7,33-31.4c0-8-3-15.5-8.2-21c1.2-15.2,14.5-7.7,14.5-15.5c0-3.4-2-5-5.3-5c-7.7,0-13.5,7.7-14.5,16
	c-5-3.4-11.2-5.3-18.4-5.3c-20.4,0-33.6,13.7-33.6,30.9c0,12.6,6.3,22,15.5,27.1c-9,0.8-13.9,5.5-13.9,11.9c0,4.5,2.9,8.8,10.3,11.4
	C491.2,156,484.3,164,484.3,172.8 M365.4,296.5C359.5,303,348,310,335.7,310c-9.9,0-18-4.6-18-14.2c0-11.9,10.2-22.9,47.8-23.6
	V296.5L365.4,296.5z M309.5,295.8c0,12.6,9.7,20.9,24.9,20.9c13.7,0,24.8-6.8,31.5-13.5c1.4,7.3,6.7,11,13.9,11
	c7.8,0,13-4.2,14.7-12.9l-3.8-1.7c-1.3,5.2-3.8,8-8.4,8c-5.9,0-8.6-3-8.6-13.7v-36.3c0-16.7-6.9-29-29-29c-13,0-20.6,3.8-25.8,8.6
	c-4.5,4.2-5.9,8-5.9,10.3c0,2.9,2,4.8,5,4.8c4,0,4.5-3.8,6.9-8.2c2.9-5,7.2-8.8,19.1-8.8c13.4,0,21.4,7.2,21.4,21.6v9.4
	C329.7,266.5,309.5,276.7,309.5,295.8 M701.4,55.5c4,0,7.3-3.2,7.3-7.2s-3.3-7.2-7.3-7.2s-7.2,3.2-7.2,7.2
	C694.3,52.3,697.4,55.5,701.4,55.5 M331.2,79.1c13.5,0,27.3,8.8,27.7,29.4h-58C303.5,90.6,314.8,79.1,331.2,79.1 M332.9,160.6
	c18.2,0,28.7-8.6,32.9-21.4l-5.2-1.9c-4.7,10.8-13.1,16.6-26.7,16.6c-21,0-33.4-14.5-33.4-37.2V115h66.3c0.2-1.2,0.2-3.8,0.2-5.3
	c0-18.4-11.5-37.2-35.6-37.2c-23.6,0-39.1,18-39.1,44.1S308,160.6,332.9,160.6"/>
<path id="path4870" d="M68.7,469.5h8.8v-214V41.7h-8.8v214V469.5z"/>
<path id="path4874" d="M946.4,469.5h8.8v-214V41.7h-8.8v214V469.5z"/>
</svg>
