<?xml version="1.0" encoding="utf-8"?>
<!-- Generator: Adobe Illustrator 22.0.0, SVG Export Plug-In . SVG Version: 6.00 Build 0)  -->
<svg version="1.1" id="Layer_1" xmlns="http://www.w3.org/2000/svg" xmlns:xlink="http://www.w3.org/1999/xlink" x="0px" y="0px"
	 viewBox="0 0 590.7 164" style="enable-background:new 0 0 590.7 164;" xml:space="preserve">
<path d="M155.2,102h13.3c5.2,0,7.2,1.8,7.2,6.2c0,4.2-2,6-7.2,6h-13.3V102L155.2,102z M134.6,146.4h20.6v-18.1h22.1
	c14.6,0,19.9-8.6,19.9-19.8c0-12.9-5.4-20.3-20.1-20.3h-42.6V146.4L134.6,146.4z"/>
<polygon points="204.1,88.3 259.6,88.3 259.6,102.5 224.7,102.5 224.7,110.3 257.1,110.3 257.1,124.5 224.7,124.5 224.7,132.3 
	259.6,132.3 259.6,146.4 204.1,146.4 "/>
<path d="M288.9,102h13.3c5.2,0,7.2,1.8,7.2,6.2c0,4.2-2,6-7.2,6h-13.3V102L288.9,102z M268.3,146.4h20.6v-18.1H311
	c14.6,0,19.9-8.6,19.9-19.8c0-12.9-5.4-20.3-20.1-20.3h-42.6L268.3,146.4L268.3,146.4z"/>
<path d="M350.9,121.8c-10.1-1.7-14.3-8.2-14.3-16.4c0-15.1,13.3-19.1,30.2-19.1c23.3,0,32.9,6.8,33.6,19h-24c0-2.4-1.2-3.8-3.1-4.6
	c-1.8-0.9-4.2-1.2-6.4-1.2c-6.1,0-8.3,1.7-8.3,4.2c0,1.6,0.7,2.7,2.7,3l24.7,4.1c10.4,1.7,16.8,7.1,16.8,16.9
	c0,14.2-10.4,20.8-33.6,20.8c-15.9,0-33.2-2.4-33.3-19.5h24.9c0.1,2,0.7,3.3,2.2,4.1c1.5,0.8,3.8,1.2,7,1.2c6.4,0,8.2-2,8.2-4.7
	c0-1.7-1-3.4-3.7-3.9L350.9,121.8L350.9,121.8z"/>
<polygon points="409.6,88.3 430.2,88.3 430.2,146.4 409.6,146.4 "/>
<path d="M506.7,123.8c-1.3,7.7-3.7,13.8-8.8,18.1c-5,4.2-13,6.6-25.5,6.6c-12.5,0-35.7-1-35.7-31.1c0-30.1,23.2-31.1,35.7-31.1
	c12.4,0,31.6,1.8,34.3,24.8h-23.3c-0.6-4.2-3.1-10.2-11.1-10.2c-8.4,0-13.8,4.6-13.8,16.4c0,11.8,5.2,16.4,12.7,16.4
	c6.5,0,10.4-3,12.1-10L506.7,123.8L506.7,123.8z"/>
<path d="M533.7,117.4c0-11.8,5.3-16.4,13.8-16.4c8.4,0,13.8,4.6,13.8,16.4c0,11.8-5.3,16.4-13.8,16.4
	C539.1,133.8,533.7,129.2,533.7,117.4L533.7,117.4z M511.8,117.4c0,30.1,23.2,31.1,35.7,31.1c12.5,0,35.7-1,35.7-31.1
	c0-30.1-23.2-31.1-35.7-31.1C535,86.3,511.8,87.3,511.8,117.4L511.8,117.4z"/>
<path d="M103.4,88.9c1.3-27.9-22.7-59.3-55.5-63.2l0.1-0.4c32.3,0,57.1,29.9,57.1,53.5c0,4.9-0.4,8-1.1,10.2L103.4,88.9L103.4,88.9z
	 M101.4,92.5c-2.2,2.6-4.9,5.3-8,7.8C87.6,66.7,63,37.4,45.5,28.9l-0.4,0.3c17.5,14.4,38.4,42.3,46.5,72.4
	c-3.9,2.9-8.4,5.5-13.3,7.6C61.8,90.3,46.4,54,41.5,30.9L41,31.1c0.1,22.4,16,60.4,35.4,78.9c-4.3,1.7-8.9,3-13.8,3.8
	C44,106.5,30.7,82.9,30.7,58.7c0-15.8,4.8-25.5,5.7-27.5l-0.4-0.2c-1.1,1.7-8.2,11.4-8.2,28.5c0,27.3,13.5,48.2,31.3,54.7
	c-6.1,0.7-12.5,0.5-19.2-0.9l-0.1,0.4c1.9,0.7,8.4,3.4,18.3,3.4c22.4,0,37.5-13.9,43.6-24.5L101.4,92.5L101.4,92.5z"/>
<path d="M56,15.5c-17,0-36.9,12.2-36.9,23.4c0,4.3,4,8,12.2,8c19,0,36.7-13.1,36.7-23.2C68,18.4,62.9,15.5,56,15.5L56,15.5z
	 M62.8,23.4c0,8.6-16.5,19-30.2,19c-6.1,0-9.4-2.4-9.4-6.3c0-8.7,16.6-19,29.5-19C61.2,17.1,62.8,21.4,62.8,23.4L62.8,23.4z"/>
<path d="M12.4,44.1C11.9,45,10,48.7,10,52.5c0,7.1,7.2,13.7,20.4,13.7c25.4,0,54.8-18.7,54.8-36.1c0-7.8-7.4-12-12.5-12.9l-0.1,0.3
	c1.6,0.5,7.4,3.2,7.4,10.2c0,13.8-25.9,32.7-51.7,32.7c-9.9,0-16.1-4.9-16.1-12c0-2.2,0.5-3.7,0.6-4.2L12.4,44.1L12.4,44.1z"/>
<path d="M95.7,31.5c0.7,0.5,4.9,4,4.9,10.6c0,22.5-35.2,44.6-66.4,44.6c-18.6,0-27-9.2-26.7-17.3h0.3c0.7,4.2,6.8,11.8,23,11.8
	c31.2,0,66-22.9,66-42.9c0-3.4-0.9-5.6-1.5-6.5L95.7,31.5L95.7,31.5z"/>
<path d="M107.4,52.5c0.1,0.5,0.9,2.6,0.9,6c0,25-35.7,46.4-66.7,46.4c-16,0-24.3-7.8-26.1-10.9l0.3-0.2c4.4,3.9,13.1,6.8,23.3,6.8
	c27.4,0,68.3-20.8,67.9-48L107.4,52.5L107.4,52.5z"/>
</svg>
