<?xml version="1.0" encoding="utf-8"?>
<!-- Generator: Adobe Illustrator 22.0.0, SVG Export Plug-In . SVG Version: 6.00 Build 0)  -->
<svg version="1.1" id="VARG" xmlns="http://www.w3.org/2000/svg" xmlns:xlink="http://www.w3.org/1999/xlink" x="0px" y="0px"
	 viewBox="0 0 170 110" style="enable-background:new 0 0 170 110;" xml:space="preserve">
<g>
	<g>
		<path d="M109.5,48.2L109.5,48.2c-1.7-0.2-2.9,1.9-3.4,3.6l-0.7,2.6h4.8l0.7-2.5c0.3-1.3,0.2-2.5-0.2-3.1
			C110.5,48.4,110.1,48.2,109.5,48.2z"/>
		<path d="M50.9,40.1L50.9,40.1L47,54.7h0.2c0.1,0,0.2,0,0.2,0c3.3,0,5.4-0.2,7.2-7.7c0.7-3.1,0.7-4.9-0.1-5.9
			C53.9,40.1,52.4,40,50.9,40.1z"/>
		<path d="M85.4,20.1c-30.3,0-55,15.5-55,34.5c0,11.3,8.8,21.9,23.4,28.3L54,83l5.8-21.2C61.4,56,63,50,64.3,45.3
			c0.6-2.1,1.1-3.9,1.4-5.2c1.8-6.3,6.7-12.7,13.7-12.7c0.1,0,0.2,0,0.2,0c6.4,0.2,7.2,4.2,7.4,5.8c0.1,1.5-0.5,2.5-1.2,3.1
			c-0.9,0.9-2,1.3-2.7,1.3c-1.9,0-3.5-1.6-3.5-3.6c0-2,1.6-3.8,3.5-3.8h0.2V30c-0.1-1-2-1.8-3.6-1.8c-2.6,0-4.6,2.7-5,4.5l-3.7,14.1
			l-0.1,0.2h11.7l-4.9,18.2H71L75.3,49h-4.9l-9.7,36.4v0.1h0.1c7.7,2.5,16.1,3.7,24.8,3.7c30.3,0,55-15.5,55-34.5
			C140.4,35.6,115.7,20.1,85.4,20.1z M95.5,63.2L95,65.3H80.5l10-16.1h-6l0.5-2.1h14.6L89.7,63l-0.2,0.2H95.5L95.5,63.2z
			 M103.9,60.2c-0.3,1.3-0.2,2.4,0.2,3.1c0.2,0.4,0.7,0.6,1.2,0.6c1.2,0,2.5-0.2,3.4-3.6l0.4-1.6h6.9c-1.9,5.2-5.3,7.5-11.1,7.2
			c-2.3-0.1-4.3-1-5.5-2.7c-1.4-1.9-1.8-4.4-1.2-7.2c2.1-8.8,7.5-10,11.9-10c2.1,0,4,0.8,5.3,2.3c1.5,1.8,1.9,4.5,1.3,7.6
			c-0.1,0.2-0.1,0.5-0.2,0.7h-11.8L103.9,60.2z M130.5,49.7L130.5,49.7l-0.1-0.2c-0.1-0.1-0.2-0.1-0.2-0.1c-0.8,0.2-2.5,3.5-3.5,6.1
			v0.1l0,0c-0.2,0.6-1.6,6.4-2.5,9.6h-6.8l4.2-16l0.1-0.2h-2.5l0.5-2.1h9.3l-0.7,2.9l0.2,0.1c1.6-2.5,3.8-3.5,5.3-3.5
			c1.9,0,3.4,1.6,3.4,3.7s-1.6,3.7-3.4,3.7c-1,0-2-0.5-2.6-1.2C130.6,52.1,130.2,51.1,130.5,49.7z M46.6,56.7L46.6,56.7l-2.4,8.6
			h-6.9l6.7-25l0.1-0.2h-3l0.5-2.1h13.8c2.3,0,4.2,0.9,5.5,2.4c1.3,1.6,1.7,3.9,1.2,6.5c-1.7,7.3-4.1,9.9-14.4,9.9
			C47.3,56.7,46.9,56.7,46.6,56.7z"/>
	</g>
</g>
</svg>
