<?xml version="1.0" encoding="utf-8"?>
<!-- Generator: Adobe Illustrator 22.0.0, SVG Export Plug-In . SVG Version: 6.00 Build 0)  -->
<svg version="1.1" id="Layer_1" xmlns="http://www.w3.org/2000/svg" xmlns:xlink="http://www.w3.org/1999/xlink" x="0px" y="0px"
	 viewBox="0 0 202 143.8" style="enable-background:new 0 0 202 143.8;" xml:space="preserve">
<g>
	<path d="M46.3,102.7h-9.8v1.5h1.2l0,0c0.4,0,0.8,0.5,0.8,0.8l0,0v3.8h6.1v-4.5h1.8L46.3,102.7L46.3,102.7L46.3,102.7z"/>
	<path d="M75.6,123.1V117h-3.2v2.6l0,0c0,0.9-0.4,1.9-1.2,1.9l0,0h-3.5l0,0c-0.4,0-0.8-0.4-0.8-0.8l0,0V114l0,0
		c0-0.4,0.3-0.5,0.5-0.5l0,0h1.1l0,0c0.4,0,0.8,0.5,0.8,0.8l0,0v1.3h3v-6.2h-3v1.2l0,0c0,0.4-0.5,0.9-0.8,0.9l0,0h-1.1l0,0
		c-0.4,0-0.5-0.4-0.5-0.7l0,0V105l0,0c0-0.4,0.5-0.7,0.8-0.7l0,0h3.5l0,0c0.4,0,0.8,0.4,0.8,0.8l0,0v2.8H75v-5.2H58.6v1.5h1.2l0,0
		c0.4,0,0.8,0.5,0.8,0.8l0,0v15.7l0,0c0,0.4-0.5,0.7-0.8,0.7l0,0h-1.2v1.5L75.6,123.1L75.6,123.1L75.6,123.1z"/>
	<path d="M81.7,110.6l6.8,12.5h6V105l0,0c0-0.4,0.5-0.8,0.8-0.8l0,0h1.2v-1.5h-6.7v1.5H91l0,0c0.4,0,0.8,0.4,0.8,0.8l0,0v10.6
		l-7.4-12.9H77v1.5h1.2l0,0c0.4,0,0.8,0.5,0.8,0.8l0,0v15.8l0,0c0,0.4-0.5,0.8-0.8,0.8l0,0H77v1.5h6.7v-1.5h-1.2l0,0
		c-0.4,0-0.8-0.4-0.8-0.8l0,0L81.7,110.6L81.7,110.6L81.7,110.6z"/>
	<path d="M101.1,110.1L97.8,121l0,0c-0.2,0.4-0.4,0.7-0.6,0.7l0,0h-1.3v1.5h6.2v-1.5h-1.2l0,0c-0.4,0-0.7-0.4-0.5-0.7l0,0l1.3-4.8
		l0,0c0-0.2,0.2-0.2,0.2-0.2l0,0h2.5v-1.8h-1.8l0,0c-0.2,0-0.3-0.2-0.2-0.3l0,0l1.1-3.6L101.1,110.1L101.1,110.1L101.1,110.1z"/>
	<path d="M104.3,115.9h2.4l0,0c0.2,0,0.2,0.2,0.3,0.2l0,0l1.3,4.8l0,0c0.1,0.4-0.3,0.7-0.5,0.7l0,0h-1.3v1.5h10.2v-1.5h-1.3l0,0
		c-0.4,0-0.5-0.4-0.6-0.7l0,0l-5.4-18.2h-9.1v1.5h1.1l0,0c1,0,1.3,0.7,1.1,1.4l0,0l-1.4,4.5h2.2l1-3.4l2,7.1l0,0
		c0.1,0.2-0.2,0.3-0.3,0.3l0,0h-1.7V115.9L104.3,115.9L104.3,115.9z"/>
	<path d="M132,118.4v-13.3l0,0c0-0.4,0.5-0.8,0.8-0.8l0,0h1.2v-1.5h-6.2v1.5h1.2l0,0c0.4,0,0.8,0.5,0.8,0.8l0,0v13.4l0,0
		c-0.1,3.7-6.6,4-6.7-0.2l0,0v-13.2l0,0c0-0.4,0.5-0.8,0.8-0.8l0,0h1.2v-1.5h-10.2v1.5h1.2l0,0c0.4,0,0.8,0.5,0.8,0.8l0,0v13.4l0,0
		C117.2,125,132,125.3,132,118.4L132,118.4L132,118.4L132,118.4z"/>
	<path d="M143.7,105c0-0.4,0.5-0.8,0.8-0.8l0,0h1.2v-1.5h-10.2v1.5h1.2l0,0c0.4,0,0.8,0.5,0.8,0.8l0,0v15.8l0,0
		c0,0.4-0.5,0.8-0.8,0.8l0,0h-1v1.5h15.8V117h-3.2v2.6l0,0c0,0.9-0.4,2-1.2,2l0,0h-2.6l0,0c-0.4,0-0.8-0.5-0.8-0.8l0,0L143.7,105
		L143.7,105L143.7,105z"/>
	<path d="M158,123.1h5.1v-1.5h-1.2l0,0c-0.4,0-0.8-0.5-0.8-0.8l0,0v-16.2l0,0c0-0.2,0.2-0.4,0.4-0.4c1.5,0.1,2.2,0.5,2.2,2.5l0,0
		v1.8h3v-6.1H158h-8.5v6.1h3v-1.8l0,0c0-2,0.6-2.5,2.2-2.5c0.2,0,0.4,0.2,0.4,0.4l0,0v16.2l0,0c0,0.4-0.5,0.8-0.8,0.8l0,0H153v1.5
		H158L158,123.1L158,123.1z"/>
	<path d="M45.2,113.3c0.3,0,0.6,0.3,0.8,0.5l0,0l0,0l4.1,9.4h7.1v-1.5h-0.5l0,0c-0.4,0-0.6-0.5-0.9-1l0,0l-4.3-7.5l0,0
		c2.6,0,3.9-2.1,3.9-4.8c0-2.8-1.2-5.5-4.5-5.5l0,0h-4.7v1.5h0.5l0,0c2.8,0,2.9,7.5,0,7.5l0,0h-2.3v-2.8h-6.1v11.9l0,0
		c0,0.4-0.5,0.7-0.8,0.7l0,0h-0.9v1.5h10.2v-1.5h-1.2l0,0c-0.4,0-0.8-0.4-0.8-0.8l0,0v-7.6L45.2,113.3L45.2,113.3L45.2,113.3
		L45.2,113.3z"/>
	<path d="M101.8,76.4l-6.2,10.8l0,0c-0.2,0.4-0.7,0.1-0.5-0.3l0,0l5.2-11.8L89.9,57.1H75.7l0,0c0,0.2,0.2,0.4,0.2,0.5l0,0L94,89l0,0
		c0.2,0.2,0.4,0.4,0.6,0.4l0,0h13.5l0,0c0.3,0,0.5-0.2,0.5-0.3l0,0l18.2-31.5l0,0c0.1-0.1,0.2-0.4,0.4-0.8l0,0h-14.1L101.5,77
		L101.8,76.4L101.8,76.4L101.8,76.4z"/>
	<path d="M111.1,57h16l0,0c0.3,0,0.4-0.2,0.5-0.4c0-0.4-0.1-0.8-0.3-1.2l0,0L109,23.9l0,0c-0.2-0.4-0.5-0.5-1-0.5l0,0H94.7l0,0
		c-0.4,0-0.8,0.2-1,0.5l0,0l0,0l-18,31.5l0,0c-0.2,0.4-0.4,0.9-0.4,1.3c0,0.3,0.2,0.5,0.4,0.5l0,0l0,0h16.2l9.2,16l0,0
		c0.2,0.2,0.4,0.3,0.6,0.2c0.1-0.1,0.2-0.1,0.2-0.2l0,0L111.1,57L111.1,57C111.1,57,111.1,57,111.1,57L111.1,57L111.1,57L111.1,57z
		 M110.3,56.6L101.4,72l-8.8-15.2l8.8-15.3L110.3,56.6L110.3,56.6L110.3,56.6z M91.7,56.3H76.3l0,0c0.1-0.2,0.1-0.4,0.2-0.5l0,0
		l18.1-31.4l0.1-0.1l0,0c0.1,0,0.1,0,0.2,0s13.4,0,13.4,0h0.1l0,0l18.2,31.5l0,0c0.1,0.1,0.1,0.2,0.2,0.3l0,0h-15.5L102,40.3l0,0
		c-0.2-0.2-0.4-0.3-0.6-0.2c-0.1,0.1-0.2,0.1-0.2,0.2l0,0L91.7,56.3L91.7,56.3L91.7,56.3z"/>
	<path d="M89.7,56.3h2.5l9.2-15.9l9,15.8h2.5l-10.4-17.9l5.2-11.8l0,0c0.2-0.4-0.4-0.5-0.6-0.3l0,0L89.7,56.3L89.7,56.3L89.7,56.3z"
		/>
	<path d="M93.7,89.2c0.2,0.4,0.5,0.5,1,0.6l0,0l0,0l0,0h13.5c0.4,0,0.8-0.2,0.9-0.5l0,0l18.2-31.5l0,0c0.1-0.2,0.2-0.7,0.2-1l0,0
		l-0.9-0.1l-0.1,0.5v0.2l-18.2,31.4l0,0c-0.1,0.1-0.2,0.1-0.2,0.1l0,0H94.7l0,0c-0.1,0-0.2-0.1-0.2-0.2l0,0L76.4,57.3l0,0
		c0-0.1-0.2-0.3-0.2-0.4c0-0.3-0.3-0.4-0.5-0.4c-0.3,0-0.4,0.3-0.4,0.5c0,0.1,0.1,0.2,0.1,0.4l0,0l0.2,0.4L93.7,89.2L93.7,89.2
		L93.7,89.2z"/>
</g>
</svg>
