<?xml version="1.0" encoding="utf-8"?>
<!-- Generator: Adobe Illustrator 22.0.0, SVG Export Plug-In . SVG Version: 6.00 Build 0)  -->
<svg version="1.1" id="svg3633" xmlns:svg="http://www.w3.org/2000/svg"
	 xmlns="http://www.w3.org/2000/svg" xmlns:xlink="http://www.w3.org/1999/xlink" x="0px" y="0px" viewBox="0 0 744.1 403.2"
	 style="enable-background:new 0 0 744.1 403.2;" xml:space="preserve">
<g id="layer1" transform="translate(-649.89646,-406.26802)">
	<g id="g20076" transform="translate(17.716521,17.668446)">
		<path id="path19828" d="M1094.2,559.5c-3.1-2.3-8.2-3.8-13.1-3.7c-5.3,0.1-10.4,1.8-13.9,4.6v-33.5h-16.5V636h16.5v-57
			c0-3.9,3.4-8.3,9.5-8.6c2.7-0.1,6.6,1.2,8.5,4c2.1,3,2,7.2,2,11.5l-0.1,50.1h16.5v-50.6C1103.7,570.4,1101.8,565,1094.2,559.5"/>
		<path id="path19830" d="M959.8,596.9c0,10.6-0.3,13.6-0.4,14.6c-0.6,6-3.1,12.3-10,12.3c-6.8,0-9.6-6.7-10-12.5
			c-0.1,0-0.4-3.7-0.4-14.3c0-10.6,0.3-15.1,0.4-15.1c0-6,3.1-12,10-12c6.8,0,10,6,10,11.9C959.2,581.8,959.8,586.3,959.8,596.9z
			 M975.7,584c-2.3-23.3-15.6-28.3-26.4-28.3c-15.4,0-24.8,9.8-26.4,28.3c-0.2,1.5-0.3,4.2-0.4,12.9c-0.1,6.3,0.3,11.6,0.4,12.9
			c1,17.3,10.9,27.8,26.4,27.8c15.5,0,25.4-10.7,26.6-27.8c0.1-1.2,0.3-6.6,0.3-12.9C976.2,594,976,586.3,975.7,584"/>
		<path id="path19832" d="M1131.3,587.1c0.1-3.7,0.1-4.4,0.2-5.4c0.4-6.6,3.4-11.9,10-11.9c7.9-0.1,9.8,7.7,10,11.9
			c0.2,2.3,0.2,3.8,0.2,5.4H1131.3z M1151.7,608.9c0,0,0,1.2-0.2,2.7c-0.4,3.8-2,12-10,12c-6.9,0-9.5-6.3-10-12.4
			c-0.1-1.8-0.3-3.7-0.3-10.4h36.9c0,0,0-5.5-0.1-8.8c0-1.3-0.1-3.5-0.3-8.1c-0.6-7-3.1-14.6-7.2-19.5c-4.6-5.8-11.1-8.8-18.8-8.8
			c-15,0-24.3,9.7-26.1,28.3c-0.2,1.6-0.4,4-0.4,12.9c0,6.3,0.3,11.7,0.4,12.9c0.9,16.9,11,27.8,26.1,27.8c15,0,24.9-10.6,26.1-28.6
			H1151.7"/>
		<path id="path19834" d="M870.1,471.2h268.8l102.7,120.3L1138.9,710H870.1L766.9,591.1L870.1,471.2z M1145.2,457.9H863.5
			L749.2,590.6l114.4,132h281.6l113.9-131.5L1145.2,457.9"/>
		<path id="path19836" d="M873.5,541.8h7.7c8.5,0,13.2,4.4,13.4,12.5c0,0.7,0.1,1.3,0.1,2.6c0,1.5,0,2-0.1,2.6
			c-0.4,4.8-2.6,13.1-12.5,13.1h-8.6L873.5,541.8L873.5,541.8z M912.6,629.1l-1.6-26.7c-0.7-11.9-3.8-19.1-10-22.7
			c4.4-2.7,10.3-9.4,10.1-23.3c0-21.1-13.2-28.5-28.6-28.8h-25.2v108.2h16.3l0.1-49.5h9c5.3,0,11.1,4.6,12,17.5l1.6,25.3
			c0.2,3.7,0.8,6.7,0.8,6.7h16.3C913.4,635.9,912.7,633,912.6,629.1"/>
		<path id="path19838" d="M1024,608.2c0,1.2-0.1,2.2-0.2,3c-0.4,6-2.6,12.5-10,12.5c-6.8,0-9.5-7-10-12.2c-0.2-3.1-0.2-5.5-0.2-14.6
			c-0.1-10.6,0.2-13.5,0.4-15.1c0.6-6.8,3.1-12,10-12c7-0.1,10,6,10,11.9c0,0.1,0.2,1.5,0.2,4.7h16.4c0-1.2-0.1-2.1-0.1-2.6
			c-1.9-22.6-15.7-28.1-26.6-28.1c-15.4,0-24.8,9.8-26.4,28.3c-0.2,1.5-0.3,4.2-0.4,12.9c-0.1,6.3,0.3,11.6,0.4,12.9
			c1,17.3,10.9,27.8,26.4,27.8c16,0.1,24.9-9.7,26.6-27.8c0-0.7,0.1-1.2,0.1-1.6L1024,608.2"/>
	</g>
</g>
</svg>
