<?xml version="1.0" encoding="utf-8"?>
<!-- Generator: Adobe Illustrator 22.0.0, SVG Export Plug-In . SVG Version: 6.00 Build 0)  -->
<svg version="1.1" id="Livello_1" xmlns="http://www.w3.org/2000/svg" xmlns:xlink="http://www.w3.org/1999/xlink" x="0px" y="0px"
	 viewBox="0 0 4838 1606.3" style="enable-background:new 0 0 4838 1606.3;" xml:space="preserve">
<g>
	<path d="M4058.8,927.7c-3.5,38-20.2,65.1-45.1,83.4c432.2-195.3,686.9-412.7,654.4-599.5C4606.9,59.9,3550.4-50,2308.3,166.6
		C1766.5,261,1278.8,401.7,906.2,559.7c19.6-4.5,41.1-6.6,63.8-6.6c66,0,157,15.8,157,117.3v32.7h-116.2c0,0,0-20.2,0-28.8
		c0-25.5-16.1-42.3-43.3-42.3c-29.1,0-39.2,16.4-42.5,31.2c-1.1,5.3-1.7,15.3,0.5,24.6c13.1,54.5,189.9,83.6,209.5,181.1
		c1.9,9.9,6.2,36.3,0.5,76.5c-11,77.6-80.4,106.4-164.6,106.4c-87.6,0-169.3-31.4-169.3-135.2l0.1-36h125v45.1
		c0,25.5,17.7,42.3,46.9,42.3c30.9,0,41.4-15.8,45.3-31.3c2.2-8.7,3.6-23.2-1-34.5c-24-60.4-189.4-87.9-209.8-183.1
		c-4.8-23.3-4.4-42-1-62.9c5.3-32.4,20.7-55.9,43.1-72.2C402.4,782.1,136.8,1004.4,170,1194.8c61.2,351.8,1117.9,461.5,2360,245.2
		c554.3-96.6,1051.9-241.7,1427.5-404.1c-19.5,4.7-40.6,6.8-62.4,6.8c-82.7,0-156-30.3-163.9-115c-1.3-15.5-1.5-22-1.7-30.7l0.1-196
		c0-8.3,1-22.9,2-30.7c10.3-87,80.9-115.1,163.6-115.1c82.6,0,154.9,27.8,163.5,115.1c1.5,14.8,1,30.7,1,30.7v15.5h-117.4v-26.1
		c0.1,0.1-0.2-11.1-1.5-17.7c-2-10.3-10.9-34-46.5-34c-34,0-43.8,22.3-46.4,34c-1.4,6.1-2,14.4-2,22v213c-0.1,5.9,0.3,12.4,1.2,17.7
		c2,12.2,13.7,33.5,47.4,33.5s45.5-21.3,47.7-33.7c0.8-5.3,1.1-11.8,1-17.7V840h-47.8v-68h165.1v125
		C4060.4,905.8,4060.2,912.2,4058.8,927.7z M1468.1,1033.5l-62-422.4h-2.6l-63.8,422.4h-125.8l86.3-465.6h207.2l86,465.6H1468.1z
		 M2087.6,1033.5l-3.1-418.6h-2.4l-77.8,418.6h-118.1l-78-418.6h-2.5l-2.9,418.6h-116.6l10.3-465.6h190l57.5,355.9h2.5l57.5-355.9
		h189.9l10.1,465.6H2087.6z M2648.4,944.1c-10.9,76.9-79.6,105.3-162.9,105.3c-86.7,0-167.7-31-167.7-133.8l0.2-35.6h123.5l0.1,44.7
		c0,24.9,17.6,41.7,46.4,41.7c30.8,0,41.2-15.5,45-31c2.1-8.8,3.6-22.9-1-34.1c-23.7-59.7-187.5-87-207.5-181.1
		c-4.8-23.3-4.5-41.5-1.1-62.2c12.1-75.3,79.2-102.3,161.1-102.3c65.3,0,155.6,15.7,155.6,116.1v32.4h-115.2c0,0,0-20,0-28.5
		c0-25.3-15.7-41.7-42.7-41.7c-28.9,0-38.8,15.9-42.2,30.9c-1.1,5-1.7,14.8,0.5,24.1c13,54,188,82.9,207.5,179.4
		C2650.1,878.2,2654.1,904.2,2648.4,944.1z M3085.6,932.2c-8.3,86.9-77,115.2-162.5,115.2c-85.6,0-154.4-28.2-162.6-115.2
		c-0.4-4.4-1.2-22.1-1-30.5v-334H2877v344.5c0,6.1,0.2,12.8,1.1,17.8c2.6,11.4,12.4,33.9,45,33.9c32.3,0,42.4-22.3,44.6-33.8
		c0.9-5,1.2-11.7,1.1-17.8V567.7h117.8v334C3086.9,910.3,3086,927.9,3085.6,932.2z M3607.9,1028.7h-165.7l-115.1-378.2h-2.5
		l6.4,378.2h-114.6V567.9h173l107,365.5h2.5l-6.3-365.5h115.3V1028.7z"/>
</g>
</svg>
