<?xml version="1.0" encoding="utf-8"?>
<!-- Generator: Adobe Illustrator 22.0.0, SVG Export Plug-In . SVG Version: 6.00 Build 0)  -->
<svg version="1.1" id="_Ebene_" xmlns="http://www.w3.org/2000/svg" xmlns:xlink="http://www.w3.org/1999/xlink" x="0px" y="0px"
	 viewBox="0 0 466.7 128" style="enable-background:new 0 0 466.7 128;" xml:space="preserve">
<title>Zeichenfläche 2</title>
<path d="M11.2,74.7V54H32v20.7H11.2z"/>
<path d="M60.6,87.3c0,6.6,1,10.9,2.9,12.8c1.6,1.7,4.4,2.7,8.3,3.1c1.2,0.1,3.1,0.1,5.9,0.1v5.8h-50v-5.8c3,0.1,6-0.1,8.9-0.6
	c3.6-0.5,6.5-3.2,7.3-6.8c0.6-2.9,0.9-5.8,0.8-8.7V11.9c-8.5,0.2-15.1,3.1-19.9,8.4c-4.5,5.1-7.3,13-8.3,23.7l-5.4-1l1-36h81.3l1,36
	l-5.3,1c-1-10.6-3.8-18.5-8.4-23.7c-4.8-5.4-11.5-8.2-20-8.4L60.6,87.3z"/>
<path d="M73.8,74.7V54h20.8v20.7H73.8z"/>
<path d="M135.8,74.7V54h20.8v20.7H135.8z"/>
<path d="M197.8,74.7V54h20.8v20.7H197.8z"/>
<path d="M282.4,53.7c6-0.1,11.7,2.6,15.4,7.3c4.3,5.3,6.5,12.3,6.5,20.8c0,7.5-1.7,13.8-5,18.9c-1.9,2.9-4.5,5.4-7.5,7
	c-2.9,1.6-6.1,2.4-9.4,2.3c-7.3,0-13.1-3.2-17.2-9.5c-3.2-5-4.8-11.3-4.9-19.1c0-8.4,2.1-15.2,6.3-20.2
	C270.4,56.3,276.2,53.5,282.4,53.7z M282.3,61.2c-4,0-7.1,1.8-9.4,5.5c-2.4,3.8-3.7,8.7-3.7,14.6c0,6.2,1.1,11.3,3.3,15.1
	c1.1,2,2.8,3.7,4.9,4.7c3.8,2,8.4,1.6,11.7-1.1c2.2-1.7,3.9-4.4,5-8.2c0.9-3.3,1.4-6.7,1.3-10.1c0-6.1-1.2-11.1-3.5-14.9
	S286.3,61.2,282.3,61.2z"/>
<path d="M311.8,108.7V71.6h7.5v4.7c2.2-3.7,6.2-5.9,10.5-5.8c2.7-0.1,5.2,0.8,7.3,2.4c2.1,1.8,3.5,4.3,3.8,7.1
	c0.2,1.7,0.3,3.3,0.2,5v23.7h-7.9V87c0.1-2.1-0.1-4.2-0.5-6.2c-0.3-1.1-0.9-2-1.8-2.7c-1-0.7-2.2-1.1-3.5-1.1c-2.2,0-4.2,1-5.5,2.8
	c-1,1.4-1.7,3.1-1.9,4.9c-0.2,1.8-0.3,3.6-0.3,5.4v18.6L311.8,108.7z"/>
<path d="M350.3,108.7V54.9h7.9v53.8H350.3z"/>
<path d="M367.7,63v-8.1h7.9V63H367.7z M367.7,108.7V71.5h7.9v37.1L367.7,108.7z"/>
<path d="M384.9,108.7V71.6h7.5v4.7c2.2-3.7,6.2-5.9,10.5-5.8c2.7-0.1,5.2,0.8,7.3,2.4c2.1,1.8,3.5,4.3,3.8,7.1
	c0.2,1.7,0.3,3.3,0.2,5v23.7h-7.9V87c0.1-2.1-0.1-4.2-0.5-6.2c-0.3-1.1-0.9-2-1.8-2.7c-1-0.7-2.2-1.1-3.5-1.1c-2.2,0-4.2,1-5.5,2.8
	c-1,1.4-1.7,3.1-1.9,4.9c-0.2,1.8-0.3,3.6-0.3,5.4v18.6L384.9,108.7z"/>
<path d="M453.2,92.1h-24c0,2,0.3,4,1,5.9c1.5,3.8,4,5.6,7.5,5.6c2.3,0.1,4.6-1,5.8-3c0.6-1,1-2,1.4-3.1h7.5c-0.4,2-1.2,3.8-2.2,5.6
	c-2.8,4.5-7,6.7-12.6,6.7c-4.7,0.2-9.2-1.9-12.1-5.6c-2.8-3.6-4.2-8.2-4.2-13.7c-0.2-5.1,1.4-10.1,4.3-14.2
	c4.9-6.5,14.1-7.8,20.6-2.9c0.4,0.3,0.8,0.6,1.2,1C451.3,78.1,453.2,84,453.2,92.1z M445.2,86.6c-0.1-1.9-0.6-3.8-1.3-5.5
	c-1.5-3-3.7-4.5-6.6-4.5c-2.7-0.1-5.2,1.5-6.3,4c-0.9,1.9-1.5,3.9-1.6,6H445.2z"/>
</svg>
