<?xml version="1.0" encoding="utf-8"?>
<!-- Generator: Adobe Illustrator 22.0.0, SVG Export Plug-In . SVG Version: 6.00 Build 0)  -->
<svg version="1.1" id="image92470" xmlns="http://www.w3.org/2000/svg" xmlns:xlink="http://www.w3.org/1999/xlink" x="0px" y="0px"
	 viewBox="0 0 959.1 146.4" style="enable-background:new 0 0 959.1 146.4;" xml:space="preserve">
<style type="text/css">
	.st0{fill:#231F20;}
</style>
<g id="Layer_3">
	<g id="g100098_1_" transform="translate(102.859,715.301)">
		<path id="path100100_1_" class="st0" d="M264.2-645.9c-5-1.9-9.4-3.5-9.4-6.7c0-3.7,2.7-5.6,8.2-5.6c4.5,0,10.1,1.6,14.7,4.2
			l0.2,0.1l2.8-8.3l-0.1-0.1c-4.8-3.2-12.8-5.3-20.3-5.3c-13,0-20.8,6.1-20.8,16.2c0,10.8,9.1,14,16.4,17c5.4,2.2,10.7,4.9,10.7,8.9
			c0,4.2-3.2,5.9-9.3,5.9c-5.3,0-11.5-1.8-16.1-4.7l-0.2-0.1l-2.9,8.5l0.1,0.1c4.7,3.4,13.4,5.7,21.1,5.7c7.1,0,12.7-1.7,16.5-4.9
			c3.7-3.2,5.6-7.8,5.6-13.6C281.4-639.5,271.9-643,264.2-645.9"/>
	</g>
	<g id="g100102_1_" transform="translate(98.075,714.371)">
		<path id="path100104_1_" class="st0" d="M221.1-635.7v13.2c-3.7,2.3-7.5,4.5-10.4,4.5c-5.7,0-8.8-3.2-8.8-8.9
			c0-6.2,3.4-9.8,9.4-9.8h1.2h1.5C216-636.7,218.6-636.6,221.1-635.7 M235.5-628.4v-14c0-8.3-2-14.3-6-18.3
			c-4.5-4.5-9.5-6.4-16.5-6.4c-7.3,0-16.1,2.7-21.9,6.6l-0.1,0.1l2.5,8.3l0.2-0.1c4.7-3,10.2-4.7,15-4.7c4.2,0,7.8,1.1,9.5,3.1
			c2,2.2,2.9,4.1,2.9,9.8c-3.4-1.5-7.7-1.4-11.6-1.4h-1.8c-12.9,0-20.8,7-20.8,18.4c0,5.3,1.8,9.8,5.2,13c3.5,3.2,8.3,5,14,5
			c5.2,0,11.3-2,16.4-5.4c0.3,1.5,0.7,2.6,1.2,4v0.1h12.7v-0.2C235.7-616.3,235.5-620.1,235.5-628.4"/>
	</g>
	<g id="g100106_1_" transform="translate(67.143,718.597)">
		<path id="path100108_1_" class="st0" d="M-57.3-682.1h21.7v67.6h16.4v-67.6H2.5v-11.5h-59.8L-57.3-682.1L-57.3-682.1z"/>
	</g>
	<g id="g100110_1_" transform="translate(75.315,711.841)">
		<path id="path100112_1_" class="st0" d="M16.3-607.8v-42.3c3.3-2.3,7.1-3.6,10.5-3.6c6,0,8.9,4.1,8.9,12.6v33.4h15.2v-33
			c0-7.9-1.8-13.7-5.5-17.8c-3.6-3.9-7.4-5.4-13.1-5.4c-5.5,0-11.3,1.7-16.1,4.6v-27.5H1v79.1L16.3-607.8L16.3-607.8z"/>
	</g>
	<g id="g100114_1_" transform="translate(92.411,711.841)">
		<path id="path100116_1_" class="st0" d="M170.1-607.8h15.2v-33c0-8.4-1.6-14.1-5-17.9c-3.5-3.7-7.4-5.3-12.7-5.3
			c-6.3,0-13,2.4-18.9,6.9L148-658l-0.4-0.5c-3.3-3.6-7.6-5.4-12.9-5.4c-5.7,0-11.8,2.1-17.1,5.8c-0.4-1.2-0.6-2-0.9-2.7l-0.5-1.7
			v-0.1h-12.3v54.9h15.3v-30c0-2.5,0-5,0-7.2c0-1.9,0-3.6,0-5.1c3.9-3,7.7-3.6,10.2-3.6c2.3,0,4.1,0.7,5.4,2.1
			c1.9,2.1,2.6,5.1,2.6,10.5v33.4h15.2v-33c0-1.8,0-3.5,0-5.1s0-3,0-4.5c3.9-2.9,7.1-3.3,9.7-3.3c2.3,0,4.1,0.7,5.4,2.1
			c1.9,2.1,2.6,5.1,2.6,10.5v33.1H170.1z"/>
	</g>
	<g id="g100118_1_" transform="translate(82.274,716.572)">
		<path id="path100120_1_" class="st0" d="M78.9-659.9c7.9,0,11.9,6.7,11.9,19.9s-4,19.9-11.9,19.9s-12-6.7-12-19.9
			S71-659.9,78.9-659.9 M78.9-611.2c8.7,0,15.9-2.6,20.8-7.6c4.9-4.9,7.4-12,7.4-20.6s-2.6-16-7.4-21.2c-5-5.4-12.2-8.2-20.8-8.2
			c-17.3,0-27.6,10.8-27.6,28.8S61.6-611.2,78.9-611.2"/>
	</g>
	<g id="g100122_1_" transform="translate(113.164,713.137)">
		<path id="path100124_1_" class="st0" d="M356.9-622.1l-0.2,0.1c-6,2.4-13.7,3.5-18.2,3.5c-6.2,0-10.8-1.5-14.1-4.6
			c-5.5-5.1-8-12.9-8-24.6c0-13.8,4.1-20.9,7.6-24.5c3.1-3.1,7.7-4.8,13.2-4.8c5.1,0,13,1.4,19.2,4.6l0.2,0.1l2.8-9.3v-0.1l-0.1-0.1
			c-7.1-4.3-16.8-5.8-23.4-5.8c-10.7,0-19.3,3.2-25.5,9.5c-7.1,7.4-10.9,17.9-10.9,30.4c0,13.8,4,24.8,11.6,31.7
			c6.1,5.5,14.5,8.3,25.1,8.3c6.6,0,16.2-1.2,23.3-4.7l0.1-0.1l-2.6-9.4"/>
	</g>
	<g id="g100126_1_" transform="translate(116.533,712.595)">
		<path id="path100128_1_" class="st0" d="M387.2-616.1c-7.9,0-12-6.7-12-19.9s4-19.9,12-19.9s12,6.7,12,19.9
			S395.2-616.1,387.2-616.1 M387.2-664.8c-17.3,0-27.7,10.8-27.7,28.8s10.3,28.8,27.7,28.8s27.6-10.8,27.6-28.8
			S404.6-664.8,387.2-664.8"/>
	</g>
	<g id="g100130_1_" transform="translate(131.187,717.326)">
		<path id="path100132_1_" class="st0" d="M519.1-668.2h-15.7L483-648v-44.4h-15.2v79.1H483v-23.6l19,23.6l0,0h17.6l-25.1-30.9
			L519.1-668.2z"/>
	</g>
	<g id="g100134_1_" transform="translate(122.57,712.595)">
		<path id="path100136_1_" class="st0" d="M441.6-616.1c-7.9,0-12-6.7-12-19.9s4-19.9,12-19.9c7.9,0,12,6.7,12,19.9
			S449.5-616.1,441.6-616.1 M441.6-664.8c-17.3,0-27.7,10.8-27.7,28.8s10.3,28.8,27.7,28.8s27.6-10.8,27.6-28.8
			S458.9-664.8,441.6-664.8"/>
	</g>
	<g id="g100138_1_" transform="translate(158.635,712.654)">
		<path id="path100140_1_" class="st0" d="M766.2-616.8c-3.4,0-7.2-1.3-10.3-3.6l-0.2-0.1v-18.3c0-4.5-0.2-8.5-0.6-12.4v-0.3
			l0.2-0.2c3.2-2.5,7.3-4,10.6-4c3.2,0,5.7,1,7.5,3c2.9,3.1,4.3,8.5,4.3,16.5c0,8.5-1.4,13.9-4.5,16.9
			C771.4-617.7,768.9-616.8,766.2-616.8 M740.4-583.4h15.2V-612l0.7,0.4c4.2,2.4,9,3.6,13.7,3.6c6.1,0,11.5-2.1,15.5-6
			c5.1-5.1,7.8-12.8,7.8-22.3c0-9.1-2.7-16.9-7.5-21.9c-4-4-9.7-6.4-15.8-6.4c-4.5,0-11.4,1.9-15.7,5.5l-0.5,0.5l-0.2-0.7
			c-0.4-1.3-0.8-2.7-1.3-4h-11.9V-583.4z"/>
	</g>
	<g id="g100142_1_" transform="translate(146.75,712.567)">
		<path id="path100144_1_" class="st0" d="M659.2-615.8c-7.9,0-12-6.7-12-19.9s4-19.9,12-19.9s12,6.7,12,19.9
			S667.1-615.8,659.2-615.8 M659.2-664.5c-17.3,0-27.7,10.8-27.7,28.8s10.3,28.8,27.7,28.8c17.3,0,27.7-10.8,27.7-28.8
			S676.5-664.5,659.2-664.5"/>
	</g>
	<g id="g100146_1_" transform="translate(137.247,719.589)">
		<path id="path100148_1_" class="st0" d="M573.7-693c-11.5,0-21.1,3.5-27.5,10.1c-6.8,6.8-10.4,17-10.4,29.5c0,13,3.2,23,9.5,29.7
			c6.2,6.5,15.4,9.9,27.4,9.9c8.7,0,17.8-1.7,24.5-4.6v-37.8h-15.7v31.7l-0.4,0.1c-2.8,0.6-5.4,0.9-7.8,0.9c-6.1,0-10.8-1.6-14-4.6
			c-4.6-4.5-6.8-12.5-6.8-25.3c0-20.8,7-30,22.6-30c5.6,0,11.6,1.5,17.4,4.3l2.4-8.4C588.4-691.2,581-693,573.7-693"/>
	</g>
	<g id="g100150_1_" transform="translate(150.159,717.3)">
		<path id="path100152_1_" class="st0" d="M689.9-667.9v33.7c0,8.5,2.1,14.8,6.4,18.5c3,2.8,7.2,4.2,12.4,4.2c5.5,0,11.5-2,16.4-5.5
			l0.5-0.4l0.2,0.7c0.4,1.5,0.5,2.2,1.1,3.8h13.7c-0.8-5.7-1-9.6-1-17.4v-37.5h-15.3v35.2c0,2.9,0.1,5.5,0.2,7.9v0.2l-0.2,0.1
			c-3.5,2.6-7,3.9-10.3,3.9c-2.4,0-4.3-0.6-5.7-1.9c-2.2-2.1-3.2-5.7-3.2-11.4v-34L689.9-667.9L689.9-667.9z"/>
	</g>
	<g id="g100154_1_" transform="translate(143.918,717.266)">
		<path id="path100156_1_" class="st0" d="M633.7-667.5c-2.1-1.1-4.3-1.7-6.6-1.7c-5.1,0-9.8,1.6-13.4,5.9c-0.4-1.2-0.7-2-0.9-2.7
			l-0.5-1.6v-0.1h-0.4l0,0H600v54.9h15.2v-30.4c0-4.9-0.2-8.4-0.5-11.3v-0.2l0.2-0.2c2.3-1.9,5-3.2,7.8-3.7c1-0.2,1.9-0.2,2.9-0.2
			c1.4,0,2.8,0.1,4.1,0.5l2.4,0.7l0,0h0.1L633.7-667.5z"/>
	</g>
</g>
</svg>
