<?xml version="1.0" encoding="utf-8"?>
<!-- Generator: Adobe Illustrator 22.0.0, SVG Export Plug-In . SVG Version: 6.00 Build 0)  -->
<svg version="1.1"
	 id="Primary_Logo" inkscape:version="0.48.4 r9939" sodipodi:docname="w-Thyssenkrupp_AG_Logo_2015.svg" xmlns:cc="http://creativecommons.org/ns#" xmlns:dc="http://purl.org/dc/elements/1.1/" xmlns:inkscape="http://www.inkscape.org/namespaces/inkscape" xmlns:rdf="http://www.w3.org/1999/02/22-rdf-syntax-ns#" xmlns:sodipodi="http://sodipodi.sourceforge.net/DTD/sodipodi-0.dtd" xmlns:svg="http://www.w3.org/2000/svg"
	 xmlns="http://www.w3.org/2000/svg" xmlns:xlink="http://www.w3.org/1999/xlink" x="0px" y="0px" viewBox="0 0 110 85"
	 style="enable-background:new 0 0 110 85;" xml:space="preserve">
<style type="text/css">
	.st0{fill:none;}
</style>
<sodipodi:namedview  bordercolor="#666666" borderopacity="1" fit-margin-bottom="0" fit-margin-left="0" fit-margin-right="0" fit-margin-top="0" gridtolerance="10" guidetolerance="10" id="namedview11" inkscape:current-layer="Primary_Logo" inkscape:cx="47.350327" inkscape:cy="41.901443" inkscape:pageopacity="0" inkscape:pageshadow="2" inkscape:window-height="1350" inkscape:window-maximized="1" inkscape:window-width="1821" inkscape:window-x="1792" inkscape:window-y="21" inkscape:zoom="8.0163956" objecttolerance="10" pagecolor="#ffffff" showgrid="false">
	</sodipodi:namedview>
<polyline id="polyline3" class="st0" points="-34.2,117.2 134.6,117.2 134.6,-26.3 -34.2,-26.3 "/>
<g id="g5" transform="translate(-29.107484,-30.29183)">
	<path id="path7" inkscape:connector-curvature="0" d="M102.2,52.9c-0.2-9.6-8-17.4-17.7-17.4S67,43.2,66.8,52.9
		c-6.3,2.7-10.6,9-10.6,16.2c0,9.8,7.9,17.7,17.7,17.7c4,0,7.7-1.3,10.6-3.6c3,2.2,6.6,3.6,10.6,3.6c9.8,0,17.7-7.9,17.7-17.7
		C112.9,61.8,108.5,55.6,102.2,52.9z M91.5,67.5C91.1,63,89,59,85.9,56.1c1.8-1.3,4-2.2,6.3-2.7c1.6,2.9,3,6.5,4.3,10.2
		C95.1,65.2,93.4,66.5,91.5,67.5z M84.5,81c-3-2.7-5-6.6-5.3-10.9c1.7,0.5,3.4,0.8,5.3,0.8s3.6-0.3,5.3-0.8
		C89.5,74.4,87.6,78.2,84.5,81z M72.6,63.7c1.3-3.7,2.7-7.3,4.3-10.2c2.3,0.4,4.4,1.4,6.3,2.7C80,59,77.9,63,77.5,67.5
		C75.6,66.5,73.9,65.2,72.6,63.7z M71.3,62c-1.5-2.3-2.5-5-2.7-7.9c1.7-0.6,3.4-0.9,5.3-0.9c0.4,0,0.7,0,1.1,0
		C73.7,55.6,72.5,58.6,71.3,62z M77.8,51.8c2.1-3.5,4.4-5.7,6.8-5.7s4.7,2.3,6.8,5.7c-2.5,0.6-4.8,1.6-6.8,3.1
		C82.5,53.4,80.2,52.4,77.8,51.8z M84.5,69.1c-1.9,0-3.6-0.3-5.3-0.9c0.2-4.3,2.2-8.2,5.3-11c3,2.7,5,6.6,5.3,11
		C88.2,68.8,86.4,69.1,84.5,69.1z M94.1,53.2c0.4,0,0.7,0,1.1,0c1.9,0,3.6,0.3,5.3,0.9c-0.2,2.9-1.1,5.6-2.7,7.9
		C96.6,58.6,95.3,55.6,94.1,53.2z M84.5,37.2c8.5,0,15.4,6.6,15.9,15c-1.7-0.5-3.4-0.8-5.3-0.8c-0.7,0-1.3,0-2,0.1
		c-2.8-4.8-5.7-7.2-8.6-7.2c-3,0-5.8,2.4-8.6,7.2c-0.7-0.1-1.3-0.1-2-0.1c-1.8,0-3.6,0.3-5.3,0.8C69.1,43.8,76.1,37.2,84.5,37.2z
		 M57.9,69.1c0-6.3,3.6-11.7,8.9-14.3c0.3,3.5,1.6,6.7,3.7,9.3c0,0.1-0.1,0.2-0.1,0.3c-2.5,7.7-4.2,15.5-4.8,18.4
		C61,79.9,57.9,74.9,57.9,69.1z M73.9,85c-2.4,0-4.6-0.5-6.6-1.4c0.9-4.4,2.5-11.3,4.7-18c1.6,1.6,3.4,2.9,5.5,3.8
		c0.1,5,2.3,9.5,5.7,12.7C80.5,83.9,77.3,85,73.9,85z M85.9,82.1c3.4-3.2,5.6-7.7,5.7-12.7c2.1-0.9,4-2.2,5.5-3.8
		c2.2,6.7,3.8,13.6,4.7,18c-2,0.9-4.3,1.4-6.6,1.4C91.7,85,88.5,83.9,85.9,82.1z M103.4,82.7c-0.6-2.9-2.3-10.7-4.8-18.4
		c0-0.1-0.1-0.2-0.1-0.3c2-2.6,3.4-5.8,3.7-9.3c5.3,2.6,8.9,8,8.9,14.3C111.1,74.9,108,79.9,103.4,82.7z"/>
	<path id="path9" inkscape:connector-curvature="0" d="M128.8,106.6c-0.3-0.1-0.5-0.3-0.6-0.5c-0.2-0.2-0.3-0.4-0.4-0.7
		c-0.1-0.3-0.1-0.6-0.1-0.9v-2.3c0-0.4,0.1-0.7,0.2-1c0.1-0.3,0.3-0.5,0.5-0.7c0.2-0.2,0.4-0.3,0.7-0.4s0.5-0.1,0.8-0.1
		c0.3,0,0.6,0.1,0.8,0.2s0.4,0.3,0.6,0.5s0.3,0.5,0.4,0.8c0.1,0.3,0.1,0.5,0.1,0.9c0,0.3,0,0.7,0,1c0,0.3,0,0.6,0,1
		c0,0.4-0.1,0.6-0.1,0.9c-0.1,0.5-0.3,0.9-0.6,1.2c-0.3,0.3-0.7,0.4-1.2,0.4C129.3,106.8,129,106.7,128.8,106.6 M127.6,111.1v-3.9
		c0.1,0.2,0.3,0.4,0.5,0.6c0.2,0.2,0.5,0.3,0.8,0.4s0.7,0.2,1.2,0.2c0.4,0,0.8-0.1,1.1-0.2c0.4-0.1,0.7-0.3,1-0.7
		c0.3-0.3,0.5-0.7,0.7-1.2c0.1-0.4,0.2-0.8,0.3-1.3c0.1-0.5,0.1-1.1,0.1-1.7c0-0.7,0-1.4-0.1-2c-0.1-0.6-0.2-1.1-0.4-1.5
		c-0.5-1-1.4-1.5-2.7-1.5c-0.6,0-1.2,0.1-1.6,0.4c-0.4,0.3-0.8,0.6-1.1,1l0-1.1h-1.7v12.4L127.6,111.1L127.6,111.1z M119.6,106.6
		c-0.3-0.1-0.5-0.3-0.6-0.5c-0.2-0.2-0.3-0.4-0.4-0.7s-0.1-0.6-0.1-0.9v-2.3c0-0.4,0.1-0.7,0.2-1c0.1-0.3,0.3-0.5,0.5-0.7
		s0.4-0.3,0.7-0.4s0.5-0.1,0.8-0.1c0.3,0,0.6,0.1,0.8,0.2c0.2,0.1,0.4,0.3,0.6,0.5c0.2,0.2,0.3,0.5,0.4,0.8c0.1,0.3,0.1,0.5,0.1,0.9
		c0,0.3,0,0.7,0,1c0,0.3,0,0.6,0,1c0,0.4-0.1,0.6-0.1,0.9c-0.1,0.5-0.3,0.9-0.6,1.2c-0.3,0.3-0.7,0.4-1.2,0.4
		C120.1,106.8,119.9,106.7,119.6,106.6 M118.4,111.1v-3.9c0.1,0.2,0.3,0.4,0.5,0.6s0.5,0.3,0.8,0.4c0.3,0.1,0.7,0.2,1.2,0.2
		c0.4,0,0.8-0.1,1.1-0.2s0.7-0.3,1-0.7c0.3-0.3,0.5-0.7,0.7-1.2c0.1-0.4,0.2-0.8,0.3-1.3c0.1-0.5,0.1-1.1,0.1-1.7c0-0.7,0-1.4-0.1-2
		c-0.1-0.6-0.2-1.1-0.4-1.5c-0.5-1-1.4-1.5-2.7-1.5c-0.6,0-1.2,0.1-1.6,0.4c-0.4,0.3-0.8,0.6-1.1,1l0-1.1h-1.7v12.4L118.4,111.1
		L118.4,111.1z M111.9,107.9c0.5-0.3,0.9-0.6,1.2-1.1l0,1.2h1.7v-9.4H113v5.5c0,0.3-0.1,0.7-0.2,1s-0.4,0.7-0.7,1s-0.7,0.4-1.2,0.4
		c-0.5,0-0.9-0.1-1.2-0.4s-0.4-0.7-0.4-1.3v-6.3h-1.8v6.8c0,0.5,0.1,1,0.2,1.4c0.2,0.4,0.4,0.7,0.6,0.9c0.3,0.2,0.5,0.4,0.9,0.5
		s0.6,0.1,1,0.1C110.9,108.3,111.4,108.2,111.9,107.9 M103.4,108v-4.3c0-0.4,0.1-0.8,0.2-1.4s0.3-1,0.7-1.4s0.9-0.6,1.6-0.6
		c0.2,0,0.4,0,0.5,0v-1.8h-0.2c-0.6,0-1.2,0.2-1.6,0.5s-0.9,0.8-1.2,1.5l0-2h-1.7v9.4C101.6,108,103.4,108,103.4,108z M94.7,108
		v-3.8L96,103l2.5,5h2l-3.2-6.4l3-3h-2.1l-3.4,3.5v-6.8h-1.8V108H94.7z M85.4,108v-5.5c0-0.3,0.1-0.7,0.2-1.1c0.1-0.4,0.4-0.7,0.7-1
		c0.3-0.3,0.7-0.4,1.2-0.4c0.5,0,0.9,0.1,1.2,0.4c0.2,0.3,0.4,0.7,0.4,1.3v6.4h1.8v-6.8c0-0.6-0.1-1.1-0.3-1.5
		c-0.2-0.4-0.5-0.8-0.9-1c-0.4-0.2-0.9-0.3-1.4-0.3c-0.7,0-1.2,0.1-1.7,0.4c-0.5,0.3-0.9,0.6-1.2,1.1l0-1.2h-1.7v9.4
		C83.6,108,85.4,108,85.4,108z M76.3,101.2c0.1-0.4,0.2-0.6,0.4-0.9c0.2-0.2,0.4-0.4,0.6-0.4c0.2-0.1,0.5-0.1,0.8-0.1
		c0.3,0,0.6,0.1,0.9,0.2s0.5,0.4,0.7,0.8s0.3,1,0.3,1.8h-3.9C76.1,102,76.2,101.6,76.3,101.2 M79.6,108.1c0.5-0.1,0.8-0.3,1.2-0.6
		s0.6-0.6,0.8-1.1l-1.4-0.7c-0.1,0.1-0.2,0.3-0.3,0.5c-0.1,0.2-0.4,0.3-0.6,0.4s-0.6,0.2-0.9,0.2c-0.3,0-0.6,0-0.9-0.1
		c-0.3-0.1-0.5-0.2-0.7-0.4c-0.2-0.2-0.3-0.5-0.5-0.8s-0.2-0.8-0.2-1.3v-0.3h5.7v-1c0-0.4,0-0.9-0.1-1.3c0-0.5-0.1-0.9-0.3-1.3
		c-0.2-0.4-0.4-0.8-0.7-1.1c-0.3-0.3-0.6-0.5-1-0.6c-0.4-0.2-0.9-0.2-1.5-0.2c-0.6,0-1.2,0.1-1.6,0.2c-0.4,0.2-0.8,0.4-1.1,0.7
		c-0.2,0.2-0.4,0.5-0.6,0.9c-0.2,0.4-0.3,0.8-0.4,1.4c-0.1,0.6-0.1,1.2-0.1,1.9c0,0.6,0,1.1,0.1,1.5c0.1,0.4,0.2,0.9,0.3,1.2
		c0.2,0.6,0.7,1.2,1.2,1.5s1.3,0.5,2.2,0.5C78.7,108.3,79.2,108.2,79.6,108.1 M70.4,108.2c0.3-0.1,0.6-0.1,0.8-0.2
		c0.2-0.1,0.4-0.2,0.6-0.3c0.2-0.1,0.3-0.2,0.4-0.4c0.2-0.2,0.3-0.5,0.4-0.8c0.1-0.3,0.2-0.6,0.2-1c0-0.3,0-0.6-0.1-0.9
		c-0.1-0.2-0.2-0.4-0.3-0.6c-0.1-0.2-0.3-0.4-0.6-0.6s-0.8-0.4-1.6-0.7c-0.4-0.1-0.7-0.2-1-0.3c-0.3-0.1-0.6-0.2-0.8-0.4
		c-0.2-0.1-0.4-0.3-0.5-0.4c-0.1-0.2-0.2-0.3-0.2-0.5c0-0.4,0.1-0.7,0.4-0.9c0.2-0.1,0.3-0.2,0.6-0.3c0.2-0.1,0.5-0.1,0.8-0.1
		c0.4,0,0.8,0.1,1.1,0.3s0.5,0.5,0.7,0.9l1.4-0.7c-0.3-0.6-0.7-1.1-1.2-1.4c-0.6-0.3-1.2-0.5-2.1-0.5c-0.5,0-0.9,0.1-1.3,0.2
		c-0.4,0.1-0.8,0.3-1.1,0.5s-0.5,0.5-0.7,0.8c-0.1,0.2-0.2,0.5-0.3,0.7c-0.1,0.2-0.1,0.5-0.1,0.7c0,0.2,0,0.5,0.1,0.8
		c0.1,0.3,0.2,0.5,0.4,0.7c0.1,0.2,0.3,0.4,0.6,0.5c0.3,0.2,0.6,0.4,1,0.5l1.4,0.5c0.2,0.1,0.5,0.2,0.7,0.3c0.3,0.1,0.5,0.3,0.6,0.4
		c0.1,0.2,0.2,0.4,0.2,0.7c0,0.2,0,0.4-0.1,0.5c-0.1,0.1-0.2,0.3-0.4,0.4s-0.3,0.2-0.6,0.2c-0.2,0-0.4,0.1-0.7,0.1
		c-0.3,0-0.5,0-0.7-0.1c-0.2-0.1-0.4-0.2-0.6-0.3c-0.2-0.1-0.3-0.3-0.4-0.4c-0.1-0.2-0.2-0.3-0.3-0.5l-1.5,0.7
		c0.1,0.3,0.3,0.6,0.5,0.9c0.2,0.3,0.5,0.5,0.7,0.7c0.3,0.2,0.6,0.3,1,0.4c0.4,0.1,0.8,0.2,1.4,0.2
		C69.8,108.3,70.1,108.3,70.4,108.2 M62.4,108.2c0.3-0.1,0.6-0.1,0.8-0.2c0.2-0.1,0.4-0.2,0.6-0.3c0.2-0.1,0.3-0.2,0.4-0.4
		c0.2-0.2,0.3-0.5,0.4-0.8c0.1-0.3,0.2-0.6,0.2-1c0-0.3,0-0.6-0.1-0.9c-0.1-0.2-0.2-0.4-0.3-0.6c-0.1-0.2-0.3-0.4-0.6-0.6
		s-0.8-0.4-1.6-0.7c-0.4-0.1-0.7-0.2-1-0.3c-0.3-0.1-0.6-0.2-0.8-0.4s-0.4-0.3-0.5-0.4c-0.1-0.2-0.2-0.3-0.2-0.5
		c0-0.4,0.1-0.7,0.4-0.9c0.2-0.1,0.3-0.2,0.6-0.3c0.2-0.1,0.5-0.1,0.8-0.1c0.4,0,0.8,0.1,1.1,0.3c0.3,0.2,0.5,0.5,0.7,0.9l1.4-0.7
		c-0.3-0.6-0.7-1.1-1.2-1.4s-1.2-0.5-2.1-0.5c-0.5,0-0.9,0.1-1.3,0.2s-0.8,0.3-1.1,0.5c-0.3,0.2-0.5,0.5-0.7,0.8
		c-0.1,0.2-0.2,0.5-0.3,0.7c0,0.2-0.1,0.5-0.1,0.7c0,0.2,0,0.5,0.1,0.8c0.1,0.3,0.2,0.5,0.4,0.7c0.1,0.2,0.3,0.4,0.6,0.5
		c0.3,0.2,0.6,0.4,1,0.5l1.4,0.5c0.2,0.1,0.5,0.2,0.7,0.3s0.5,0.3,0.6,0.4c0.1,0.2,0.2,0.4,0.2,0.7c0,0.2,0,0.4-0.1,0.5
		s-0.2,0.3-0.4,0.4s-0.3,0.2-0.6,0.2c-0.2,0-0.4,0.1-0.7,0.1c-0.3,0-0.5,0-0.7-0.1s-0.4-0.2-0.6-0.3c-0.2-0.1-0.3-0.3-0.4-0.4
		c-0.1-0.2-0.2-0.3-0.3-0.5l-1.5,0.7c0.1,0.3,0.3,0.6,0.5,0.9c0.2,0.3,0.5,0.5,0.7,0.7c0.3,0.2,0.6,0.3,1,0.4
		c0.4,0.1,0.8,0.2,1.4,0.2C61.8,108.3,62.1,108.3,62.4,108.2 M51.5,111.2c0.3-0.1,0.7-0.3,1-0.7c0.3-0.4,0.6-0.9,0.9-1.6l4-10.2
		h-1.8l-2.5,6.5l-2.3-6.5H49l3.2,8.9l-0.4,0.9c-0.1,0.3-0.3,0.6-0.5,0.9c-0.2,0.2-0.5,0.4-1,0.4c-0.1,0-0.3,0-0.4,0v1.6
		c0.2,0,0.4,0,0.6,0C50.8,111.3,51.1,111.3,51.5,111.2 M42.6,108v-5.5c0-0.3,0.1-0.7,0.2-1.1c0.1-0.4,0.4-0.7,0.7-1
		c0.3-0.3,0.7-0.4,1.2-0.4c0.5,0,0.9,0.1,1.2,0.4s0.4,0.7,0.4,1.3v6.4H48v-6.8c0-0.6-0.1-1.1-0.3-1.5c-0.2-0.4-0.5-0.8-0.9-1
		c-0.4-0.2-0.9-0.3-1.4-0.3c-0.6,0-1.2,0.1-1.6,0.4c-0.4,0.2-0.8,0.6-1.2,1v-4.4h-1.8V108L42.6,108L42.6,108z M39.2,108v-1.5
		c-0.2,0-0.5,0-0.7,0c-0.3,0-0.5,0-0.7-0.1c-0.2-0.1-0.3-0.2-0.4-0.3c-0.1-0.1-0.2-0.3-0.2-0.5c0-0.2-0.1-0.5-0.1-0.7V100h1.9v-1.4
		h-1.9v-3.3h-1.8v3.3h-1.2v1.4h1.2v4.8c0,0.5,0,0.9,0.1,1.3c0.1,0.4,0.2,0.7,0.4,1c0.2,0.3,0.5,0.5,0.9,0.6s0.8,0.2,1.4,0.2
		C38.6,108.1,38.9,108.1,39.2,108z"/>
</g>
</svg>
